<svg version="1.1" id="Layer_1" xmlns="http://www.w3.org/2000/svg" xmlns:xlink="http://www.w3.org/1999/xlink" x="0px" y="0px"
	 width="100%" viewBox="0 0 1015 1414" enable-background="new 0 0 1015 1414" xml:space="preserve">
<path fill="#FFFFFF" opacity="1.000000" stroke="none" 
	d="
M479.000000,1415.000000 
	C319.333344,1415.000000 160.166672,1415.000000 1.000000,1415.000000 
	C1.000000,943.666687 1.000000,472.333344 1.000000,1.000000 
	C339.333344,1.000000 677.666687,1.000000 1016.000000,1.000000 
	C1016.000000,472.333344 1016.000000,943.666687 1016.000000,1415.000000 
	C837.166687,1415.000000 658.333313,1415.000000 479.000000,1415.000000 
M798.276672,343.130524 
	C797.851868,342.763611 797.427063,342.396729 796.720215,341.434967 
	C795.134766,339.984131 793.549377,338.533295 791.992798,336.249115 
	C792.001892,335.137970 792.010986,334.026794 792.694397,333.216553 
	C808.189636,340.220032 824.113037,340.234894 840.229126,336.728607 
	C837.645142,336.250977 835.042419,336.716888 832.418945,336.954254 
	C815.133972,338.518402 799.125305,334.294708 783.312439,325.893494 
	C774.821777,319.768494 766.050842,313.987610 757.946228,307.388550 
	C753.137146,303.472931 749.378296,298.267456 745.199768,293.298096 
	C745.199768,293.298096 745.033020,292.992889 745.106995,292.315460 
	C744.424927,291.181824 743.742859,290.048157 743.002319,288.980011 
	C743.002319,288.980011 743.084900,288.950348 743.023071,288.128632 
	C742.661804,286.015167 742.189514,283.913727 741.958313,281.786133 
	C740.936646,272.382538 737.207886,264.369446 729.489563,257.632141 
	C723.043945,248.832138 718.313538,239.276642 716.274475,228.458008 
	C715.269775,223.127274 712.848694,218.772507 707.157227,217.026367 
	C706.389465,216.790817 705.871216,215.741898 704.216797,213.986954 
	C721.485901,208.297134 737.904480,202.887543 754.323120,197.477951 
	C754.244812,196.789871 754.166504,196.101776 754.088135,195.413696 
	C749.855042,194.278091 745.675903,192.851685 741.380127,192.053482 
	C710.511780,186.317734 679.646179,180.557999 648.715454,175.174805 
	C641.606445,173.937531 633.661560,172.098343 627.097473,173.990967 
	C575.421936,188.890640 523.903564,204.353836 472.499054,220.171036 
	C382.723755,247.794983 293.063477,275.792755 203.359741,303.649200 
	C199.915314,304.718811 196.520477,305.948090 193.102539,307.102936 
	C193.181656,307.781525 193.260757,308.460144 193.339874,309.138763 
	C201.525772,309.138763 209.711670,309.138763 218.151611,309.393951 
	C218.472763,309.316772 218.793900,309.239624 219.980957,309.214355 
	C258.455139,309.214355 296.929321,309.214355 335.581879,309.214355 
	C338.013245,322.124512 340.512299,334.322968 342.573547,346.594910 
	C345.519501,364.134155 349.065826,381.659668 346.153656,399.622650 
	C345.929749,401.003998 346.412170,402.592163 346.880035,403.978302 
	C349.790649,412.600891 352.701935,421.225586 355.815796,429.775757 
	C356.741211,432.316803 356.248138,433.825378 354.419220,435.849243 
	C350.564850,440.114380 346.668488,444.524750 343.818268,449.468658 
	C340.104156,455.911102 337.868500,463.207642 334.137543,469.638245 
	C327.468750,481.132202 324.814514,493.605804 327.392395,506.202667 
	C330.346069,520.635925 329.813507,534.183044 324.461334,548.738098 
	C328.977966,546.733154 333.494568,544.728210 339.374573,542.118042 
	C339.374573,553.359375 339.374573,564.007263 339.374573,574.655151 
	C340.124847,574.912842 340.875092,575.170532 341.625366,575.428223 
	C345.737152,570.843933 349.848969,566.259583 354.256134,561.345947 
	C356.383148,576.283752 365.883209,584.237122 380.494690,587.322144 
	C375.733948,591.230408 371.028351,594.881897 366.556885,598.800537 
	C346.489838,616.386902 330.298889,637.310425 315.085449,659.045410 
	C304.982452,673.479309 294.285309,687.575684 285.293457,702.679932 
	C279.783600,711.935181 275.842346,722.537537 273.356567,733.045898 
	C271.448090,741.113831 269.672729,748.625305 264.568695,755.363525 
	C252.184540,771.712463 240.228119,788.542358 233.000458,807.826294 
	C221.694199,837.992249 211.816010,868.690613 200.756622,898.952820 
	C192.188065,922.399170 188.874634,946.409241 188.576538,971.309204 
	C188.123962,1009.115479 186.227219,1046.903442 185.054535,1084.702515 
	C183.850708,1123.504639 182.674561,1162.308472 181.706573,1201.116821 
	C181.358292,1215.080200 181.650681,1229.059448 181.650681,1243.206055 
	C379.118164,1243.206055 576.109619,1243.206055 773.430786,1243.206055 
	C773.167725,1241.266724 773.059448,1239.789185 772.759155,1238.351807 
	C760.488708,1179.612061 748.417542,1120.829468 735.853088,1062.152588 
	C723.847107,1006.083618 711.397522,950.108948 698.980530,894.128845 
	C695.810913,879.838989 692.500732,865.390991 683.745789,853.272888 
	C668.930542,832.766541 653.439453,812.748291 638.642639,792.229065 
	C631.864929,782.830261 625.333923,773.109070 619.980530,762.860535 
	C611.283691,746.211182 603.932251,728.863892 595.455139,712.093018 
	C590.442871,702.177002 585.627197,691.697876 578.447510,683.453796 
	C568.575134,672.117920 556.555786,662.650330 545.442078,652.397705 
	C540.281616,647.637085 535.087585,642.912659 531.036682,639.204468 
	C537.288696,628.686829 542.817139,619.662415 548.054443,610.472168 
	C551.181519,604.984924 553.807068,599.213928 556.736267,593.611389 
	C566.606506,574.733337 577.944031,569.042664 599.104736,571.657410 
	C612.122742,573.265991 625.189331,574.826111 638.278748,575.414062 
	C651.356567,576.001465 660.427734,566.173157 660.023621,553.010315 
	C659.860229,547.687988 659.875122,542.238892 658.696472,537.102783 
	C657.485901,531.827454 659.039490,528.645569 662.830322,525.073975 
	C672.239502,516.209045 672.052124,515.139160 663.454041,505.846924 
	C663.259766,505.636932 663.249084,505.257019 663.083679,504.740417 
	C663.569641,504.216827 664.103210,503.605652 664.674500,503.031982 
	C671.944519,495.732147 672.677734,494.529053 667.092468,486.138885 
	C664.432495,482.143158 665.572571,478.431793 670.085388,474.969696 
	C673.776611,472.137909 677.873474,469.835968 681.575012,467.016205 
	C689.423523,461.037292 690.162292,454.119720 683.976807,446.444641 
	C683.037109,445.278625 682.031921,444.163452 681.025146,443.053741 
	C674.201050,435.532074 667.227417,428.140350 660.576965,420.468384 
	C653.494324,412.298004 651.834656,403.226471 656.721985,393.180145 
	C658.232910,390.074310 659.427979,386.682373 660.031250,383.290466 
	C662.651733,368.556915 660.735901,354.114380 656.526062,339.910156 
	C655.605957,336.805878 655.575256,334.196381 656.810181,330.919312 
	C657.968628,327.845093 657.719482,323.639740 656.606689,320.449371 
	C654.880920,315.501587 651.914185,310.983307 649.441650,306.299835 
	C639.036377,286.590332 628.600342,266.897003 618.235718,247.166229 
	C617.196045,245.187119 616.562683,242.994583 615.678467,240.742325 
	C617.295654,240.030838 618.310303,239.455078 619.399353,239.124908 
	C633.224121,234.933594 647.041931,230.717697 660.897766,226.631012 
	C672.518127,223.203705 684.164551,219.858414 695.859985,216.700684 
	C697.318237,216.306961 699.146790,217.284805 700.803772,217.627106 
	C700.115051,219.031418 699.722351,220.728653 698.679565,221.782684 
	C696.025879,224.465042 695.312561,227.199722 696.747437,230.808609 
	C701.305359,242.273010 705.114807,253.925369 704.771729,266.522369 
	C704.713562,268.659088 705.017700,270.880859 705.580933,272.947083 
	C709.029602,285.597473 712.601196,298.214355 716.180603,311.480377 
	C717.428406,314.257416 718.676208,317.034454 719.335449,320.200317 
	C724.955200,337.131927 730.575012,354.063568 736.180115,371.556946 
	C736.447327,372.041565 736.714600,372.526184 736.934814,373.666718 
	C737.270081,374.458588 737.605286,375.250458 737.932617,376.824188 
	C740.549866,384.398834 743.167114,391.973511 745.784363,399.548157 
	C746.208313,399.411682 746.632324,399.275208 747.056274,399.138702 
	C746.622864,397.098907 746.189453,395.059113 746.383301,393.015991 
	C746.800171,393.038177 747.217041,393.060333 748.015198,393.712952 
	C748.838013,394.797241 749.660767,395.881531 751.223083,397.940460 
	C751.223083,394.954132 751.223083,393.278046 751.223083,391.338165 
	C763.076111,401.808197 764.526062,402.187134 769.784973,396.249756 
	C771.244507,397.524628 772.704468,398.799835 773.036621,399.089905 
	C776.622070,397.655762 779.294556,396.586792 782.197021,395.425812 
	C781.875488,393.737183 781.552185,392.039612 781.207458,390.229401 
	C784.568481,391.252838 786.839172,395.832947 791.234619,392.549438 
	C790.044006,390.239502 788.937439,388.092590 787.830811,385.945648 
	C788.054688,385.847534 788.278564,385.749390 788.502441,385.651276 
	C792.074463,388.420715 795.646484,391.190186 799.218445,393.959625 
	C799.544983,393.551910 799.871460,393.144165 800.197937,392.736450 
	C799.966675,391.334229 799.735352,389.932037 799.391663,387.848572 
	C802.127441,389.698486 804.205933,391.103912 806.284363,392.509338 
	C806.711243,392.081879 807.138123,391.654419 807.565002,391.226959 
	C805.994690,388.552155 804.424377,385.877380 803.203064,382.660004 
	C804.124084,382.162842 805.045044,381.665680 806.608337,381.017273 
	C806.407715,380.658264 806.207092,380.299255 805.995728,380.003265 
	C805.995728,380.003265 806.059021,380.011566 806.504578,379.355713 
	C806.322266,378.592712 806.139954,377.829712 806.318237,376.274628 
	C806.670044,375.166351 807.021912,374.058075 807.659790,372.934784 
	C807.950073,372.844177 808.240356,372.753571 808.735596,372.080383 
	C808.558594,371.727020 808.381653,371.373657 807.974792,370.282776 
	C806.912415,366.946381 805.850037,363.609985 805.074646,359.658417 
	C805.402161,358.600830 805.729614,357.543274 806.736755,356.165009 
	C803.988159,351.995239 801.239563,347.825470 798.276672,343.130524 
z"/>
<path fill="#2F4F82" opacity="1.000000" stroke="none" 
	d="
M736.981812,373.010803 
	C736.714600,372.526184 736.447327,372.041565 736.426147,371.002563 
	C736.443787,368.524475 736.319458,366.581512 735.967041,364.680817 
	C735.018066,359.562347 734.279480,354.372345 732.830261,349.393311 
	C732.137817,347.014099 729.489136,345.230560 728.680054,342.852753 
	C727.506836,339.404785 727.197571,335.662842 726.370972,331.670105 
	C723.989258,324.977448 721.848145,318.625092 719.412170,312.387878 
	C719.092834,311.570374 717.262329,311.343109 716.131714,310.842438 
	C712.601196,298.214355 709.029602,285.597473 705.580933,272.947083 
	C705.017700,270.880859 704.713562,268.659088 704.771729,266.522369 
	C705.114807,253.925369 701.305359,242.273010 696.747437,230.808609 
	C695.312561,227.199722 696.025879,224.465042 698.679565,221.782684 
	C699.722351,220.728653 700.115051,219.031418 700.803772,217.627106 
	C699.146790,217.284805 697.318237,216.306961 695.859985,216.700684 
	C684.164551,219.858414 672.518127,223.203705 660.897766,226.631012 
	C647.041931,230.717697 633.224121,234.933594 619.399353,239.124908 
	C618.310303,239.455078 617.295654,240.030838 615.678467,240.742325 
	C616.562683,242.994583 617.196045,245.187119 618.235718,247.166229 
	C628.600342,266.897003 639.036377,286.590332 649.441650,306.299835 
	C651.914185,310.983307 654.880920,315.501587 656.606689,320.449371 
	C657.719482,323.639740 657.968628,327.845093 656.810181,330.919312 
	C655.575256,334.196381 655.605957,336.805878 656.526062,339.910156 
	C660.735901,354.114380 662.651733,368.556915 660.031250,383.290466 
	C659.427979,386.682373 658.232910,390.074310 656.721985,393.180145 
	C651.834656,403.226471 653.494324,412.298004 660.576965,420.468384 
	C667.227417,428.140350 674.201050,435.532074 681.025146,443.053741 
	C682.031921,444.163452 683.037109,445.278625 683.976807,446.444641 
	C690.162292,454.119720 689.423523,461.037292 681.575012,467.016205 
	C677.873474,469.835968 673.776611,472.137909 670.085388,474.969696 
	C665.572571,478.431793 664.432495,482.143158 667.092468,486.138885 
	C672.677734,494.529053 671.944519,495.732147 664.674500,503.031982 
	C664.103210,503.605652 663.569641,504.216827 663.083679,504.740417 
	C663.249084,505.257019 663.259766,505.636932 663.454041,505.846924 
	C672.052124,515.139160 672.239502,516.209045 662.830322,525.073975 
	C659.039490,528.645569 657.485901,531.827454 658.696472,537.102783 
	C659.875122,542.238892 659.860229,547.687988 660.023621,553.010315 
	C660.427734,566.173157 651.356567,576.001465 638.278748,575.414062 
	C625.189331,574.826111 612.122742,573.265991 599.104736,571.657410 
	C577.944031,569.042664 566.606506,574.733337 556.736267,593.611389 
	C553.807068,599.213928 551.181519,604.984924 548.054443,610.472168 
	C542.817139,619.662415 537.288696,628.686829 531.036682,639.204468 
	C535.087585,642.912659 540.281616,647.637085 545.442078,652.397705 
	C556.555786,662.650330 568.575134,672.117920 578.447510,683.453796 
	C585.627197,691.697876 590.442871,702.177002 595.455139,712.093018 
	C603.932251,728.863892 611.283691,746.211182 619.980530,762.860535 
	C625.333923,773.109070 631.864929,782.830261 638.642639,792.229065 
	C653.439453,812.748291 668.930542,832.766541 683.745789,853.272888 
	C692.500732,865.390991 695.810913,879.838989 698.980530,894.128845 
	C711.397522,950.108948 723.847107,1006.083618 735.853088,1062.152588 
	C748.417542,1120.829468 760.488708,1179.612061 772.759155,1238.351807 
	C773.059448,1239.789185 773.167725,1241.266724 773.430786,1243.206055 
	C576.109619,1243.206055 379.118164,1243.206055 181.650681,1243.206055 
	C181.650681,1229.059448 181.358292,1215.080200 181.706573,1201.116821 
	C182.674561,1162.308472 183.850708,1123.504639 185.054535,1084.702515 
	C186.227219,1046.903442 188.123962,1009.115479 188.576538,971.309204 
	C188.874634,946.409241 192.188065,922.399170 200.756622,898.952820 
	C211.816010,868.690613 221.694199,837.992249 233.000458,807.826294 
	C240.228119,788.542358 252.184540,771.712463 264.568695,755.363525 
	C269.672729,748.625305 271.448090,741.113831 273.356567,733.045898 
	C275.842346,722.537537 279.783600,711.935181 285.293457,702.679932 
	C294.285309,687.575684 304.982452,673.479309 315.085449,659.045410 
	C330.298889,637.310425 346.489838,616.386902 366.556885,598.800537 
	C371.028351,594.881897 375.733948,591.230408 380.494690,587.322144 
	C365.883209,584.237122 356.383148,576.283752 354.256134,561.345947 
	C349.848969,566.259583 345.737152,570.843933 341.625366,575.428223 
	C340.875092,575.170532 340.124847,574.912842 339.374573,574.655151 
	C339.374573,564.007263 339.374573,553.359375 339.374573,542.118042 
	C333.494568,544.728210 328.977966,546.733154 324.461334,548.738098 
	C329.813507,534.183044 330.346069,520.635925 327.392395,506.202667 
	C324.814514,493.605804 327.468750,481.132202 334.137543,469.638245 
	C337.868500,463.207642 340.104156,455.911102 343.818268,449.468658 
	C346.668488,444.524750 350.564850,440.114380 354.419220,435.849243 
	C356.248138,433.825378 356.741211,432.316803 355.815796,429.775757 
	C352.701935,421.225586 349.790649,412.600891 346.880035,403.978302 
	C346.412170,402.592163 345.929749,401.003998 346.153656,399.622650 
	C349.065826,381.659668 345.519501,364.134155 342.573547,346.594910 
	C340.512299,334.322968 338.013245,322.124512 335.581879,309.214355 
	C296.929321,309.214355 258.455139,309.214355 219.245255,309.097351 
	C218.305573,309.033142 218.101578,309.085938 217.897568,309.138763 
	C209.711670,309.138763 201.525772,309.138763 193.339874,309.138763 
	C193.260757,308.460144 193.181656,307.781525 193.102539,307.102936 
	C196.520477,305.948090 199.915314,304.718811 203.359741,303.649200 
	C293.063477,275.792755 382.723755,247.794983 472.499054,220.171036 
	C523.903564,204.353836 575.421936,188.890640 627.097473,173.990967 
	C633.661560,172.098343 641.606445,173.937531 648.715454,175.174805 
	C679.646179,180.557999 710.511780,186.317734 741.380127,192.053482 
	C745.675903,192.851685 749.855042,194.278091 754.088135,195.413696 
	C754.166504,196.101776 754.244812,196.789871 754.323120,197.477951 
	C737.904480,202.887543 721.485901,208.297134 704.216797,213.986954 
	C705.871216,215.741898 706.389465,216.790817 707.157227,217.026367 
	C712.848694,218.772507 715.269775,223.127274 716.274475,228.458008 
	C718.313538,239.276642 723.043945,248.832138 729.710205,258.188965 
	C730.018982,259.855347 730.107056,260.964905 730.179199,262.435181 
	C732.808716,268.119324 735.454224,273.442810 738.100403,279.143799 
	C739.762390,282.664307 741.423645,285.807312 743.084961,288.950317 
	C743.084900,288.950348 743.002319,288.980011 743.005981,289.330505 
	C743.684082,290.784973 744.358582,291.888916 745.033020,292.992889 
	C745.033020,292.992889 745.199768,293.298096 745.137268,293.878601 
	C747.126343,298.007538 749.177917,301.555939 751.219727,305.374542 
	C751.490906,305.774048 751.771851,305.903381 752.048096,305.997101 
	C752.043274,305.961517 751.972534,305.949127 751.862671,306.269592 
	C752.214661,307.597382 752.676575,308.604675 753.101807,310.011047 
	C753.676331,312.045776 754.760803,313.668213 754.806763,315.319580 
	C754.926697,319.627594 757.567566,319.483490 760.648438,319.191589 
	C760.742004,319.296478 760.835571,319.561646 760.612305,319.889099 
	C761.132568,322.788025 761.875977,325.359467 762.702087,328.241699 
	C762.895325,328.965088 763.005920,329.377686 763.082764,330.158813 
	C762.066345,334.780762 762.993469,337.524231 768.402893,337.127197 
	C771.422668,340.919983 774.162659,344.530731 777.013428,348.461243 
	C785.700806,360.254883 794.277405,371.728729 802.854065,383.202576 
	C804.424377,385.877380 805.994690,388.552155 807.565002,391.226959 
	C807.138123,391.654419 806.711243,392.081879 806.284363,392.509338 
	C804.205933,391.103912 802.127441,389.698486 799.391663,387.848572 
	C799.735352,389.932037 799.966675,391.334229 800.197937,392.736450 
	C799.871460,393.144165 799.544983,393.551910 799.218445,393.959625 
	C795.646484,391.190186 792.074463,388.420715 788.502441,385.651276 
	C788.278564,385.749390 788.054688,385.847534 787.830811,385.945648 
	C788.937439,388.092590 790.044006,390.239502 791.234619,392.549438 
	C786.839172,395.832947 784.568481,391.252838 781.207458,390.229401 
	C781.552185,392.039612 781.875488,393.737183 782.197021,395.425812 
	C779.294556,396.586792 776.622070,397.655762 773.036621,399.089905 
	C772.704468,398.799835 771.244507,397.524628 769.784973,396.249756 
	C764.526062,402.187134 763.076111,401.808197 751.223083,391.338165 
	C751.223083,393.278046 751.223083,394.954132 751.223083,397.940460 
	C749.660767,395.881531 748.838013,394.797241 747.716614,393.054535 
	C745.280884,387.578278 743.143677,382.760437 740.997375,377.974609 
	C740.988220,378.006622 741.051575,378.027283 741.056519,377.658569 
	C740.700378,376.672699 740.339233,376.055573 739.992188,375.176331 
	C739.659668,374.572174 739.312988,374.230133 738.790527,373.663940 
	C738.070435,373.296783 737.526123,373.153809 736.981812,373.010803 
M786.272278,384.775055 
	C786.773926,384.877655 787.275574,384.980255 787.777222,385.082825 
	C787.751343,384.798584 787.768860,384.281372 787.692688,384.267181 
	C787.118652,384.160156 786.526184,384.152191 786.595337,383.604340 
	C786.059814,383.073730 785.524292,382.543121 784.939331,381.453644 
	C784.710449,381.483429 784.481506,381.513184 784.252625,381.542938 
	C784.511902,381.682617 784.771240,381.822327 784.778931,382.573090 
	C785.186890,383.048401 785.594849,383.523682 786.272278,384.775055 
z"/>
<path fill="#44587B" opacity="1.000000" stroke="none" 
	d="
M751.229492,305.104370 
	C749.177917,301.555939 747.126343,298.007538 745.111023,294.050537 
	C749.378296,298.267456 753.137146,303.472931 757.946228,307.388550 
	C766.050842,313.987610 774.821777,319.768494 783.623169,326.323364 
	C783.583801,327.194763 783.233643,327.636322 782.550293,328.072998 
	C781.936890,328.165436 781.644165,328.238678 781.383423,328.373688 
	C781.297119,328.418427 781.223572,328.710999 781.261414,328.740631 
	C784.821594,331.530579 788.393188,334.306030 791.963989,337.082458 
	C793.549377,338.533295 795.134766,339.984131 796.852051,342.041321 
	C796.982666,343.060089 796.981445,343.472473 796.667480,343.838074 
	C795.434387,343.286713 794.514038,342.782166 793.411438,342.068268 
	C792.654236,341.592285 792.079224,341.325684 791.504211,341.059052 
	C791.392517,341.251648 791.280823,341.444244 791.169128,341.636871 
	C791.745789,342.121063 792.322449,342.605255 793.034912,343.398193 
	C796.435852,347.482178 799.700989,351.257446 802.983032,355.016357 
	C803.000000,355.000000 802.967529,355.032898 802.894653,355.392639 
	C803.477051,357.259460 804.132324,358.766541 804.787659,360.273590 
	C805.850037,363.609985 806.912415,366.946381 808.035645,370.946533 
	C808.241211,371.961182 808.385925,372.312073 808.530640,372.662964 
	C808.240356,372.753571 807.950073,372.844177 807.439575,372.637085 
	C802.886780,360.448181 796.491272,350.034943 786.366394,342.073151 
	C783.268494,339.637054 780.709534,336.485443 778.083496,333.503235 
	C777.516968,332.859863 777.725037,331.534424 777.550537,330.348022 
	C776.252747,329.394592 774.239136,328.253754 772.645508,326.686005 
	C765.687988,319.841339 758.852356,312.872742 751.972534,305.949127 
	C751.972534,305.949127 752.043274,305.961517 751.948669,305.808777 
	C751.722778,305.385010 751.514648,305.201141 751.229492,305.104370 
z"/>
<path fill="#E5F0F7" opacity="1.000000" stroke="none" 
	d="
M751.862671,306.269592 
	C758.852356,312.872742 765.687988,319.841339 772.645508,326.686005 
	C774.239136,328.253754 776.252747,329.394592 777.550537,330.348022 
	C777.725037,331.534424 777.516968,332.859863 778.083496,333.503235 
	C780.709534,336.485443 783.268494,339.637054 786.366394,342.073151 
	C796.491272,350.034943 802.886780,360.448181 807.296631,372.644562 
	C807.021912,374.058075 806.670044,375.166351 805.852051,376.468872 
	C804.387634,374.563751 803.481995,372.414337 802.377014,370.372833 
	C791.775879,350.785950 774.608154,336.561005 760.835571,319.561646 
	C760.835571,319.561646 760.742004,319.296478 760.547180,318.912781 
	C757.947754,315.556702 755.543152,312.584320 753.138550,309.611938 
	C752.676575,308.604675 752.214661,307.597382 751.862671,306.269592 
z"/>
<path fill="#40567B" opacity="1.000000" stroke="none" 
	d="
M760.612305,319.889099 
	C774.608154,336.561005 791.775879,350.785950 802.377014,370.372833 
	C803.481995,372.414337 804.387634,374.563751 805.671753,376.864899 
	C806.139954,377.829712 806.322266,378.592712 805.928772,379.706604 
	C796.215820,369.046051 787.078735,358.034637 777.841187,346.701172 
	C776.563049,344.801880 775.452515,343.168762 774.195251,341.657776 
	C770.367004,337.056854 766.482239,332.503082 762.619446,327.930939 
	C761.875977,325.359467 761.132568,322.788025 760.612305,319.889099 
z"/>
<path fill="#5B657B" opacity="1.000000" stroke="none" 
	d="
M782.883484,328.077881 
	C783.233643,327.636322 783.583801,327.194763 783.963989,326.458038 
	C799.125305,334.294708 815.133972,338.518402 832.418945,336.954254 
	C835.042419,336.716888 837.645142,336.250977 840.229126,336.728607 
	C824.113037,340.234894 808.189636,340.220032 792.165039,332.779297 
	C788.718323,330.920624 785.800903,329.499268 782.883484,328.077881 
z"/>
<path fill="#475974" opacity="1.000000" stroke="none" 
	d="
M726.519897,332.046265 
	C727.197571,335.662842 727.506836,339.404785 728.680054,342.852753 
	C729.489136,345.230560 732.137817,347.014099 732.830261,349.393311 
	C734.279480,354.372345 735.018066,359.562347 735.967041,364.680817 
	C736.319458,366.581512 736.443787,368.524475 736.433472,370.721680 
	C730.575012,354.063568 724.955200,337.131927 719.959412,320.176147 
	C722.562195,324.116760 724.541077,328.081512 726.519897,332.046265 
z"/>
<path fill="#E0EFF7" opacity="1.000000" stroke="none" 
	d="
M777.941650,347.023193 
	C787.078735,358.034637 796.215820,369.046051 805.705994,380.034515 
	C806.059021,380.011566 805.995728,380.003265 805.914917,380.276306 
	C805.878113,380.755768 805.922058,380.962128 805.966003,381.168518 
	C805.045044,381.665680 804.124084,382.162842 803.028564,382.931274 
	C794.277405,371.728729 785.700806,360.254883 777.131836,348.227173 
	C777.406860,347.456573 777.674255,347.239868 777.941650,347.023193 
z"/>
<path fill="#4A5B74" opacity="1.000000" stroke="none" 
	d="
M743.054016,288.539490 
	C741.423645,285.807312 739.762390,282.664307 738.444580,279.034912 
	C738.355774,271.788635 734.574219,266.775757 730.195190,262.074493 
	C730.107056,260.964905 730.018982,259.855347 729.969727,258.419861 
	C737.207886,264.369446 740.936646,272.382538 741.958313,281.786133 
	C742.189514,283.913727 742.661804,286.015167 743.054016,288.539490 
z"/>
<path fill="#606C81" opacity="1.000000" stroke="none" 
	d="
M738.966309,373.888092 
	C739.312988,374.230133 739.659668,374.572174 740.024170,375.570190 
	C740.378601,376.826538 740.715088,377.426910 741.051575,378.027283 
	C741.051575,378.027283 740.988220,378.006622 740.882202,378.364746 
	C742.436157,383.488342 744.096130,388.253815 745.756042,393.019318 
	C746.189453,395.059113 746.622864,397.098907 747.056274,399.138702 
	C746.632324,399.275208 746.208313,399.411682 745.784363,399.548157 
	C743.167114,391.973511 740.549866,384.398834 738.202026,376.260590 
	C738.636353,375.094025 738.801331,374.491058 738.966309,373.888092 
z"/>
<path fill="#C3D9EE" opacity="1.000000" stroke="none" 
	d="
M726.371033,331.670105 
	C724.541077,328.081512 722.562195,324.116760 720.253662,319.981750 
	C718.676208,317.034454 717.428406,314.257416 716.156128,311.161407 
	C717.262329,311.343109 719.092834,311.570374 719.412170,312.387878 
	C721.848145,318.625092 723.989258,324.977448 726.371033,331.670105 
z"/>
<path fill="#5B6A79" opacity="1.000000" stroke="none" 
	d="
M798.490967,343.655701 
	C801.239563,347.825470 803.988159,351.995239 806.138550,355.995483 
	C804.682800,355.561584 803.825134,355.297241 802.967529,355.032898 
	C802.967529,355.032898 803.000000,355.000000 803.331848,354.763367 
	C801.769958,351.024750 799.876221,347.522797 798.107605,343.926819 
	C798.232727,343.832794 798.490967,343.655701 798.490967,343.655701 
z"/>
<path fill="#DCEDF6" opacity="1.000000" stroke="none" 
	d="
M782.550293,328.072998 
	C785.800903,329.499268 788.718323,330.920624 791.827881,332.628845 
	C792.010986,334.026794 792.001892,335.137970 791.978394,336.665771 
	C788.393188,334.306030 784.821594,331.530579 781.261414,328.740631 
	C781.223572,328.710999 781.297119,328.418427 781.383423,328.373688 
	C781.644165,328.238678 781.936890,328.165436 782.550293,328.072998 
z"/>
<path fill="#C7DCEF" opacity="1.000000" stroke="none" 
	d="
M746.069702,393.017639 
	C744.096130,388.253815 742.436157,383.488342 740.891357,378.332764 
	C743.143677,382.760437 745.280884,387.578278 747.526001,392.739319 
	C747.217041,393.060333 746.800171,393.038177 746.069702,393.017639 
z"/>
<path fill="#D3E7F5" opacity="1.000000" stroke="none" 
	d="
M802.894653,355.392639 
	C803.825134,355.297241 804.682800,355.561584 805.798767,356.155823 
	C805.729614,357.543274 805.402161,358.600830 804.931152,359.966003 
	C804.132324,358.766541 803.477051,357.259460 802.894653,355.392639 
z"/>
<path fill="#4A5B74" opacity="1.000000" stroke="none" 
	d="
M745.070007,292.654175 
	C744.358582,291.888916 743.684082,290.784973 743.035217,289.297729 
	C743.742859,290.048157 744.424927,291.181824 745.070007,292.654175 
z"/>
<path fill="#475974" opacity="1.000000" stroke="none" 
	d="
M738.790527,373.663940 
	C738.801331,374.491058 738.636353,375.094025 738.205933,375.869659 
	C737.605286,375.250458 737.270081,374.458588 736.958313,373.338745 
	C737.526123,373.153809 738.070435,373.296783 738.790527,373.663940 
z"/>
<path fill="#5B6A79" opacity="1.000000" stroke="none" 
	d="
M796.980164,343.884857 
	C796.981445,343.472473 796.982666,343.060089 796.993042,342.338745 
	C797.427063,342.396729 797.851868,342.763611 798.383789,343.393127 
	C798.490967,343.655701 798.232727,343.832794 797.848633,343.955414 
	C797.302979,344.013641 797.141541,343.949249 796.980164,343.884857 
z"/>
<path fill="#E5F0F7" opacity="1.000000" stroke="none" 
	d="
M808.633118,372.371674 
	C808.385925,372.312073 808.241211,371.961182 808.150635,371.315308 
	C808.381653,371.373657 808.558594,371.727020 808.633118,372.371674 
z"/>
<path fill="#93A0B4" opacity="1.000000" stroke="none" 
	d="
M218.024597,309.266357 
	C218.101578,309.085938 218.305573,309.033142 218.812302,309.071381 
	C218.793900,309.239624 218.472763,309.316772 218.024597,309.266357 
z"/>
<path fill="#40567B" opacity="1.000000" stroke="none" 
	d="
M806.287170,381.092896 
	C805.922058,380.962128 805.878113,380.755768 805.920288,380.244812 
	C806.207092,380.299255 806.407715,380.658264 806.287170,381.092896 
z"/>
<path fill="#C7DCEF" opacity="1.000000" stroke="none" 
	d="
M777.841187,346.701172 
	C777.674255,347.239868 777.406860,347.456573 777.021057,347.907379 
	C774.162659,344.530731 771.422668,340.919983 768.300476,336.802551 
	C766.317688,334.127350 764.717102,331.958801 763.116516,329.790283 
	C763.005920,329.377686 762.895325,328.965088 762.702087,328.241699 
	C766.482239,332.503082 770.367004,337.056854 774.195251,341.657776 
	C775.452515,343.168762 776.563049,344.801880 777.841187,346.701172 
z"/>
<path fill="#C7DCEF" opacity="1.000000" stroke="none" 
	d="
M730.179199,262.435181 
	C734.574219,266.775757 738.355774,271.788635 738.443848,278.657410 
	C735.454224,273.442810 732.808716,268.119324 730.179199,262.435181 
z"/>
<path fill="#40567B" opacity="1.000000" stroke="none" 
	d="
M753.101807,310.011047 
	C755.543152,312.584320 757.947754,315.556702 760.453613,318.807861 
	C757.567566,319.483490 754.926697,319.627594 754.806763,315.319580 
	C754.760803,313.668213 753.676331,312.045776 753.101807,310.011047 
z"/>
<path fill="#40567B" opacity="1.000000" stroke="none" 
	d="
M763.082764,330.158813 
	C764.717102,331.958801 766.317688,334.127350 768.020691,336.620514 
	C762.993469,337.524231 762.066345,334.780762 763.082764,330.158813 
z"/>
<path fill="#C7DCEF" opacity="1.000000" stroke="none" 
	d="
M741.056519,377.658569 
	C740.715088,377.426910 740.378601,376.826538 740.010071,375.832336 
	C740.339233,376.055573 740.700378,376.672699 741.056519,377.658569 
z"/>
<path fill="#FFFFFF" opacity="1.000000" stroke="none" 
	d="
M786.002747,383.998962 
	C785.594849,383.523682 785.186890,383.048401 784.894409,382.280945 
	C785.009827,381.988770 784.988708,382.012512 784.988708,382.012512 
	C785.524292,382.543121 786.059814,383.073730 786.281189,383.829102 
	C785.967041,384.053864 786.002747,383.998993 786.002747,383.998962 
z"/>
<path fill="#FFFFFF" opacity="1.000000" stroke="none" 
	d="
M785.953247,384.083557 
	C786.526184,384.152191 787.118652,384.160156 787.692688,384.267181 
	C787.768860,384.281372 787.751343,384.798584 787.777222,385.082825 
	C787.275574,384.980255 786.773926,384.877655 786.137512,384.387024 
	C786.002747,383.998993 785.967041,384.053864 785.953247,384.083557 
z"/>
<path fill="#FFFFFF" opacity="1.000000" stroke="none" 
	d="
M785.020142,381.975403 
	C784.771240,381.822327 784.511902,381.682617 784.252625,381.542938 
	C784.481506,381.513184 784.710449,381.483429 784.963989,381.733093 
	C784.988708,382.012512 785.009827,381.988770 785.020142,381.975403 
z"/>
<path fill="#E5F0F7" opacity="1.000000" stroke="none" 
	d="
M751.219727,305.374512 
	C751.514648,305.201141 751.722778,305.385010 751.953491,305.844360 
	C751.771851,305.903381 751.490906,305.774048 751.219727,305.374512 
z"/>
<path fill="#D3E7F5" opacity="1.000000" stroke="none" 
	d="
M796.667480,343.838074 
	C797.141541,343.949249 797.302979,344.013641 797.723511,344.049438 
	C799.876221,347.522797 801.769958,351.024750 803.314880,354.779724 
	C799.700989,351.257446 796.435852,347.482178 793.228516,343.212280 
	C793.388733,342.570984 793.491150,342.424316 793.593628,342.277618 
	C794.514038,342.782166 795.434387,343.286713 796.667480,343.838074 
z"/>
<path fill="#D3E7F5" opacity="1.000000" stroke="none" 
	d="
M793.092651,342.903564 
	C792.322449,342.605255 791.745789,342.121063 791.169128,341.636871 
	C791.280823,341.444244 791.392517,341.251648 791.504211,341.059052 
	C792.079224,341.325684 792.654236,341.592285 793.411438,342.068268 
	C793.491150,342.424316 793.388733,342.570984 793.092651,342.903564 
z"/>
</svg>