<?xml version="1.0" encoding="UTF-8"?>
<svg version="1.1" xmlns="http://www.w3.org/2000/svg" width="220" height="220">
<path d="M0 0 C72.6 0 145.2 0 220 0 C220 72.6 220 145.2 220 220 C147.4 220 74.8 220 0 220 C0 147.4 0 74.8 0 0 Z " fill="#FCFCFC" transform="translate(0,0)"/>
<path d="M0 0 C2.02264035 1.9866823 3.45988929 4.12554887 5.046875 6.47265625 C9.52615309 12.2688421 16.14266522 16.53680574 23 19 C24.38529821 13.54538831 25.2396943 8.63281599 25 3 C26.32 2.34 27.64 1.68 29 1 C30.5 2.375 30.5 2.375 32 4 C32 4.66 32 5.32 32 6 C31.34 6 30.68 6 30 6 C30.2165625 6.60328125 30.433125 7.2065625 30.65625 7.828125 C30.9346875 8.62734375 31.213125 9.4265625 31.5 10.25 C31.7784375 11.03890625 32.056875 11.8278125 32.34375 12.640625 C33 15 33 15 33 19 C41.3431565 15.44643334 48.36981679 9.88676643 53.625 2.4375 C56 0 56 0 59.8125 -0.5625 C64.96341597 -0.14301252 69.92464217 1.20135654 73.875 4.625 C78.85457833 15.13744315 77 26.70001755 77 38 C44.66 38 12.32 38 -21 38 C-21 8.59016393 -21 8.59016393 -16.5703125 3.2890625 C-11.87130401 -0.00725689 -5.56771899 -1.4434827 0 0 Z " fill="#2C2B2B" transform="translate(82,182)"/>
<path d="M0 0 C1.83349609 1.45532227 1.83349609 1.45532227 3.5234375 3.31640625 C4.1525 3.99896484 4.7815625 4.68152344 5.4296875 5.38476562 C6.07164063 6.10341797 6.71359375 6.82207031 7.375 7.5625 C8.00921875 8.25408203 8.6434375 8.94566406 9.296875 9.65820312 C13.04898501 13.76638071 16.71158687 17.95049401 20.36621094 22.14526367 C23.52082291 25.72649308 26.80017844 29.19303743 30.05859375 32.6796875 C32 35 32 35 32 37 C29.22970414 37.50314563 26.4588348 38.00263838 23.6875 38.5 C22.90181641 38.64308594 22.11613281 38.78617188 21.30664062 38.93359375 C20.1706543 39.13662109 20.1706543 39.13662109 19.01171875 39.34375 C18.31522217 39.46943359 17.61872559 39.59511719 16.90112305 39.72460938 C15 40 15 40 12 40 C11.95101562 40.58007812 11.90203125 41.16015625 11.8515625 41.7578125 C11.40350595 46.43923092 10.701979 50.57485459 9 55 C7.58221707 52.16443413 8.13742378 50.0091294 8.4375 46.875 C8.53933594 45.77929688 8.64117187 44.68359375 8.74609375 43.5546875 C8.82988281 42.71164063 8.91367188 41.86859375 9 41 C8.01 41.33 7.02 41.66 6 42 C4.046875 41.2578125 4.046875 41.2578125 1.75 40.125 C-5.0100686 37.21636514 -11.72526391 37.19399296 -19 37 C-19 37.66 -19 38.32 -19 39 C-17.515 39.495 -17.515 39.495 -16 40 C-20.90068963 41.63356321 -25.85738476 41.05529694 -31 41 C-30.67 45.95 -30.34 50.9 -30 56 C-33.89030379 52.10969621 -34.11499385 46.34293621 -34.1953125 41.0625 C-34.18223024 39.37488795 -34.15869469 37.68732636 -34.125 36 C-34.11597656 35.12988281 -34.10695313 34.25976562 -34.09765625 33.36328125 C-34.07434619 31.2420658 -34.03848579 29.12099438 -34 27 C-34.61584961 26.70561035 -35.23169922 26.4112207 -35.86621094 26.10791016 C-39.75576911 24.08836611 -42.75835156 20.9174836 -46 18 C-46.33 23.94 -46.66 29.88 -47 36 C-47.66 36 -48.32 36 -49 36 C-49 28.74 -49 21.48 -49 14 C-42.92569109 11.57027643 -36.95599138 9.21105365 -30.76171875 7.16796875 C-29.66873222 6.80666618 -29.66873222 6.80666618 -28.55366516 6.43806458 C-27.03437392 5.93798777 -25.51444608 5.43984099 -23.99389648 4.94360352 C-21.67124838 4.18217225 -19.35437615 3.404584 -17.03710938 2.62695312 C-15.54980816 2.13961979 -14.06218875 1.65325624 -12.57421875 1.16796875 C-11.88768723 0.93474411 -11.2011557 0.70151947 -10.49382019 0.46122742 C-6.6429262 -0.771158 -3.84252227 -1.44131119 0 0 Z " fill="#272524" transform="translate(121,95)"/>
<path d="M0 0 C8.77788229 -0.42645582 15.73176604 -0.40246843 23.92578125 3.125 C25.93192066 4.12955916 25.93192066 4.12955916 28 4 C28 21 28 21 26 25 C25.01 25.33 24.02 25.66 23 26 C21.90833725 27.93330603 21.90833725 27.93330603 21 30 C20.34 30.66 19.68 31.32 19 32 C18.94053445 34.27959065 18.94053445 34.27959065 19.3125 36.8125 C19.42078125 37.70324219 19.5290625 38.59398437 19.640625 39.51171875 C20.00455402 42.03153161 20.42131638 44.51992734 21 47 C14.7185645 49.83677732 8.84954075 51.94361628 2.125 49.6875 C0.74377773 49.14045677 -0.63210712 48.57956907 -2 48 C-2.99 47.67 -3.98 47.34 -5 47 C-4.30834212 41.58201328 -3.24200752 36.3177215 -2 31 C-2.60585937 30.70996094 -3.21171875 30.41992188 -3.8359375 30.12109375 C-7.78181297 28.07693083 -10.5397395 25.69039075 -13 22 C-13.20497101 19.19872957 -13.26272884 17.52545768 -12 15 C-11.92966231 13.12620395 -11.9156978 11.24998898 -11.9375 9.375 C-11.958125 7.60125 -11.97875 5.8275 -12 4 C-6.06 3.505 -6.06 3.505 0 3 C0 2.01 0 1.02 0 0 Z " fill="#F2D1B0" transform="translate(102,132)"/>
<path d="M0 0 C1.83349609 1.45532227 1.83349609 1.45532227 3.5234375 3.31640625 C4.1525 3.99896484 4.7815625 4.68152344 5.4296875 5.38476562 C6.07164063 6.10341797 6.71359375 6.82207031 7.375 7.5625 C8.00921875 8.25408203 8.6434375 8.94566406 9.296875 9.65820312 C13.04898501 13.76638071 16.71158687 17.95049401 20.36621094 22.14526367 C23.52082291 25.72649308 26.80017844 29.19303743 30.05859375 32.6796875 C32 35 32 35 32 37 C29.22970414 37.50314563 26.4588348 38.00263838 23.6875 38.5 C22.90181641 38.64308594 22.11613281 38.78617188 21.30664062 38.93359375 C20.1706543 39.13662109 20.1706543 39.13662109 19.01171875 39.34375 C18.31522217 39.46943359 17.61872559 39.59511719 16.90112305 39.72460938 C15 40 15 40 12 40 C11.95101562 40.58007812 11.90203125 41.16015625 11.8515625 41.7578125 C11.40350595 46.43923092 10.701979 50.57485459 9 55 C7.27732488 51.55464976 8.04507933 47.6359885 8.16015625 43.84765625 C8.22993839 40.79554586 8.22993839 40.79554586 6 38 C7.65 38.33 9.3 38.66 11 39 C10.89040282 35.70762945 10.75971069 32.41643113 10.625 29.125 C10.5940625 28.18785156 10.563125 27.25070313 10.53125 26.28515625 C10.47324219 24.94130859 10.47324219 24.94130859 10.4140625 23.5703125 C10.3826416 22.74289551 10.3512207 21.91547852 10.31884766 21.06298828 C10.17400863 18.78013915 10.17400863 18.78013915 8 17 C1.9149659 14.92244211 -4.37778079 14.64775126 -10.75 14.6875 C-11.6152832 14.68878906 -12.48056641 14.69007812 -13.37207031 14.69140625 C-20.57376407 14.79845484 -27.09350741 15.8826811 -34 18 C-34.33 20.31 -34.66 22.62 -35 25 C-39.9681699 25 -42.43398882 21.27371518 -46 18 C-46.33 23.94 -46.66 29.88 -47 36 C-47.66 36 -48.32 36 -49 36 C-49 28.74 -49 21.48 -49 14 C-42.92569109 11.57027643 -36.95599138 9.21105365 -30.76171875 7.16796875 C-29.66873222 6.80666618 -29.66873222 6.80666618 -28.55366516 6.43806458 C-27.03437392 5.93798777 -25.51444608 5.43984099 -23.99389648 4.94360352 C-21.67124838 4.18217225 -19.35437615 3.404584 -17.03710938 2.62695312 C-15.54980816 2.13961979 -14.06218875 1.65325624 -12.57421875 1.16796875 C-11.88768723 0.93474411 -11.2011557 0.70151947 -10.49382019 0.46122742 C-6.6429262 -0.771158 -3.84252227 -1.44131119 0 0 Z " fill="#161515" transform="translate(121,95)"/>
<path d="M0 0 C3.77748238 2.1671612 5.36000677 4.10564784 6.625 8.375 C7.55645124 14.6834652 6.93240535 19.50798409 3.17578125 24.74609375 C-0.28999238 28.38646555 -4.09082747 29.23982394 -8.9375 29.75 C-14.30865142 29.16405621 -17.70965505 27.38825526 -21.1875 23.3125 C-24.43250745 18.95491857 -25.03489501 15.74843077 -24.375 10.375 C-23.04078464 5.92225717 -21.11508007 2.46902963 -17.1875 -0.125 C-11.45927077 -2.86671655 -5.74365598 -2.50823876 0 0 Z " fill="#D37D74" transform="translate(71.375,69.625)"/>
<path d="M0 0 C4.58932074 1.32580377 7.88641716 3.25504972 10.5 7.3125 C12.68523265 12.68453027 12.58330241 16.12047002 10.875 21.625 C8.23930822 26.36924521 5.2670552 29.24431493 0 31 C-5.4696513 31.42074241 -9.25359683 30.81268336 -14 28 C-17.70416062 24.1092318 -19.32014472 20.23105174 -19.5625 14.875 C-19.23728464 8.98498851 -16.71948203 5.92177403 -12.875 1.625 C-8.57654938 -0.80455905 -4.82297003 -0.71206711 0 0 Z " fill="#D67B72" transform="translate(161,68)"/>
<path d="M0 0 C5.00350441 3.00210265 6.66195073 6.10962467 8.125 11.6875 C8.49974022 16.70325372 6.96769049 20.77841042 4.125 24.875 C0.65038511 28.17319956 -3.06581281 30.13079075 -7.875 30.5 C-12.56874639 30.17597412 -16.41398979 27.98300252 -19.875 24.875 C-23.83215659 19.52013213 -23.65854283 14.30005118 -22.875 7.875 C-18.38755902 -1.59848651 -9.46349663 -3.42643843 0 0 Z " fill="#EC7546" transform="translate(117.875,54.125)"/>
<path d="M0 0 C4.21220959 2.38146125 7.31392814 4.97089222 10 9 C10.68923878 14.55398223 10.7242151 19.47110145 8.3125 24.5625 C5.22905688 27.81261572 2.59681441 29.71936095 -1.8671875 30.50390625 C-10.99170481 30.68165659 -10.99170481 30.68165659 -15.125 27.3125 C-18.85812376 23.41588177 -19.86197256 20.44928807 -20.375 15.0625 C-20.22755154 10.70457893 -18.9341738 8.30094553 -16 5 C-11.24150597 1.01002381 -6.27136043 -1.74338977 0 0 Z " fill="#75CDEB" transform="translate(186,117)"/>
<path d="M0 0 C3.5 1.5 3.5 1.5 6 3 C6 3.66 6 4.32 6 5 C6.928125 5.37125 6.928125 5.37125 7.875 5.75 C10.43764738 7.25743964 10.88469682 8.28447921 12 11 C12.79537308 15.0686392 12.74418473 18.58169988 10.796875 22.29296875 C8.27362646 25.79110877 6.14801062 28.51116048 2 30 C-1.015625 30.1953125 -1.015625 30.1953125 -4.25 30.125 C-5.32765625 30.10695312 -6.4053125 30.08890625 -7.515625 30.0703125 C-8.33546875 30.04710937 -9.1553125 30.02390625 -10 30 C-10 29.34 -10 28.68 -10 28 C-10.5775 27.95875 -11.155 27.9175 -11.75 27.875 C-14.43554806 26.8306202 -15.74139516 25.46056509 -17.234375 23.0078125 C-18.84987598 18.7712436 -18.64694284 14.42957803 -18 10 C-14.3892612 2.36189869 -8.32842184 -1.43764425 0 0 Z " fill="#82C5DC" transform="translate(42,117)"/>
<path d="M0 0 C5.00350441 3.00210265 6.66195073 6.10962467 8.125 11.6875 C8.49974022 16.70325372 6.96769049 20.77841042 4.125 24.875 C0.65038511 28.17319956 -3.06581281 30.13079075 -7.875 30.5 C-12.56874639 30.17597412 -16.41398979 27.98300252 -19.875 24.875 C-23.83215659 19.52013213 -23.65854283 14.30005118 -22.875 7.875 C-18.38755902 -1.59848651 -9.46349663 -3.42643843 0 0 Z M-17.875 3.875 C-18.67453138 7.16196233 -18.97158936 8.58523192 -17.875 11.875 C-19.195 11.875 -20.515 11.875 -21.875 11.875 C-21.545 13.525 -21.215 15.175 -20.875 16.875 C-20.215 16.875 -19.555 16.875 -18.875 16.875 C-19.205 17.865 -19.535 18.855 -19.875 19.875 C-18.225 20.205 -16.575 20.535 -14.875 20.875 C-14.875 19.225 -14.875 17.575 -14.875 15.875 C-13.885 17.36 -13.885 17.36 -12.875 18.875 C-12.215 18.875 -11.555 18.875 -10.875 18.875 C-10.875 19.535 -10.875 20.195 -10.875 20.875 C-8.895 21.205 -6.915 21.535 -4.875 21.875 C-4.875 22.865 -4.875 23.855 -4.875 24.875 C-9.825 25.37 -9.825 25.37 -14.875 25.875 C-11.57307955 28.0762803 -9.80732882 28.64368654 -5.875 28.875 C-2.46286542 28.41989517 -2.46286542 28.41989517 0.125 25.875 C1.2612891 21.91777427 1.67027371 17.95657939 2.125 13.875 C2.54296875 11.55859375 2.54296875 11.55859375 3.125 9.875 C3.785 9.545 4.445 9.215 5.125 8.875 C3.50992166 5.26482489 2.60751377 4.06986133 -1.125 2.5625 C-7.32037959 1.42668041 -11.9841453 1.57612987 -17.875 3.875 Z " fill="#ED7467" transform="translate(117.875,54.125)"/>
<path d="M0 0 C0 2.31 0 4.62 0 7 C0.721875 7.061875 1.44375 7.12375 2.1875 7.1875 C6.10551357 8.31937059 7.64122063 9.66995853 10 13 C10.34196449 16.89839513 10.10874577 20.52503215 7.7109375 23.71484375 C4.54157859 26.09548092 0.87043219 26.24444835 -3 26 C-5.92143417 24.23496686 -7.47923817 23.04152365 -9 20 C-9.16796875 18.125 -9.16796875 18.125 -9.1875 16 C-9.20167969 15.29875 -9.21585938 14.5975 -9.23046875 13.875 C-9 12 -9 12 -7 10 C-7.16666667 7.91666667 -7.16666667 7.91666667 -8 6 C-8.66 5.67 -9.32 5.34 -10 5 C-9.1875 3.0625 -9.1875 3.0625 -8 1 C-5.07175348 0.02391783 -3.04386724 -0.08226668 0 0 Z " fill="#F0EFF0" transform="translate(63,70)"/>
<path d="M0 0 C0.66 0 1.32 0 2 0 C4.64933344 4.52594463 5.66779596 7.75303174 5 13 C2.86320715 16.38939556 1.8225233 17.72582557 -2 19 C-1.34 19.33 -0.68 19.66 0 20 C0 20.66 0 21.32 0 22 C-2.64 22 -5.28 22 -8 22 C-8 21.34 -8 20.68 -8 20 C-7.34 20 -6.68 20 -6 20 C-6 19.34 -6 18.68 -6 18 C-7.32 17.67 -8.64 17.34 -10 17 C-10 15.68 -10 14.36 -10 13 C-10.99 13 -11.98 13 -13 13 C-13.48209366 6.73278237 -13.48209366 6.73278237 -11.4375 3.625 C-8.28388966 1.52259311 -5.75406042 1.20855891 -2 1 C-1.34 1.33 -0.68 1.66 0 2 C0 1.34 0 0.68 0 0 Z " fill="#83C9DD" transform="translate(162,73)"/>
<path d="M0 0 C0.52078125 0.64453125 1.0415625 1.2890625 1.578125 1.953125 C4.70975418 4.59985676 6.69773096 4.58790924 10.75 4.75 C12.8125 4.8325 14.875 4.915 17 5 C17 9.62 17 14.24 17 19 C14.751875 19.103125 12.50375 19.20625 10.1875 19.3125 C8.29064453 19.39951172 8.29064453 19.39951172 6.35546875 19.48828125 C3 19 3 19 1.0625 16.9375 C-0.23508974 13.35004601 -0.29425143 10.49496772 -0.1875 6.6875 C-0.14689453 4.80611328 -0.14689453 4.80611328 -0.10546875 2.88671875 C-0.07066406 1.93410156 -0.03585938 0.98148437 0 0 Z " fill="#E75F5F" transform="translate(173,123)"/>
<path d="M0 0 C1.60611514 2.13175283 2.84216416 4.11713748 3.96875 6.53125 C4.30390625 7.23765625 4.6390625 7.9440625 4.984375 8.671875 C5.34789062 9.46851563 5.34789062 9.46851563 5.71875 10.28125 C9.04634923 8.72930246 11.20455485 6.97503051 13.71875 4.28125 C15.3300298 9.99396928 13.80864546 13.96795645 11.71875 19.28125 C3.68039863 18.36679535 -3.82996298 11.2401971 -9.03125 5.34375 C-11.28125 2.28125 -11.28125 2.28125 -11.28125 0.28125 C-12.60125 -0.04875 -13.92125 -0.37875 -15.28125 -0.71875 C-13.20127174 -0.9952789 -11.1169192 -1.23905075 -9.03125 -1.46875 C-7.29101562 -1.67757812 -7.29101562 -1.67757812 -5.515625 -1.890625 C-2.28125 -1.71875 -2.28125 -1.71875 0 0 Z " fill="#E3776B" transform="translate(93.28125,181.71875)"/>
<path d="M0 0 C6.93 0.495 6.93 0.495 14 1 C13.01 1.33 12.02 1.66 11 2 C10.32036328 3.32676907 9.65640522 4.66158511 9 6 C3.90494171 11.82427667 -1.79888899 17.84015914 -9 21 C-9.99 21 -10.98 21 -12 21 C-12.50310058 19.2092015 -13.00238628 17.41733089 -13.5 15.625 C-13.7784375 14.62726563 -14.056875 13.62953125 -14.34375 12.6015625 C-15 10 -15 10 -15 8 C-14.01 7.67 -13.02 7.34 -12 7 C-11.38125 7.825 -10.7625 8.65 -10.125 9.5 C-9.42375 10.325 -8.7225 11.15 -8 12 C-7.34 12 -6.68 12 -6 12 C-4.02 8.04 -2.04 4.08 0 0 Z " fill="#E57C71" transform="translate(127,180)"/>
<path d="M0 0 C0.33 0.66 0.66 1.32 1 2 C6.17352955 3.52162634 11.84522612 3.64952764 17 2 C17.144375 2.763125 17.28875 3.52625 17.4375 4.3125 C17.9632594 7.08172908 17.9632594 7.08172908 19 10 C18.81640625 12.078125 18.81640625 12.078125 18 14 C16.15234375 15.046875 16.15234375 15.046875 13.9375 15.75 C12.83728516 16.11351562 12.83728516 16.11351562 11.71484375 16.484375 C11.14894531 16.65453125 10.58304688 16.8246875 10 17 C9.67 15.35 9.34 13.7 9 12 C8.01 12 7.02 12 6 12 C6 12.66 6 13.32 6 14 C5.01 14 4.02 14 3 14 C3 13.34 3 12.68 3 12 C1.68 11.67 0.36 11.34 -1 11 C-1 10.01 -1 9.02 -1 8 C-0.34 8 0.32 8 1 8 C0.67 5.36 0.34 2.72 0 0 Z M1 3 C2 5 2 5 2 5 Z " fill="#EFC9A6" transform="translate(101,165)"/>
<path d="M0 0 C0.66 0 1.32 0 2 0 C2.268125 0.763125 2.53625 1.52625 2.8125 2.3125 C3.95800967 4.90496926 4.99711522 6.08815544 7 8 C7 8.66 7 9.32 7 10 C7.66 10 8.32 10 9 10 C9.33 12.31 9.66 14.62 10 17 C9.34 17 8.68 17 8 17 C8 17.66 8 18.32 8 19 C8.66 19 9.32 19 10 19 C10 19.99 10 20.98 10 22 C7.3125 22.3125 7.3125 22.3125 4 22 C1.42714276 19.827365 -0.48996919 18.02006162 -2 15 C-2.12207871 13.21140489 -2.17548448 11.41771619 -2.1875 9.625 C-2.20167969 8.66851562 -2.21585938 7.71203125 -2.23046875 6.7265625 C-1.99745572 3.96989983 -1.40920164 2.35052605 0 0 Z " fill="#70CDEE" transform="translate(26,123)"/>
<path d="M0 0 C4.18738251 2.49632419 4.95187688 4.27952882 6.25 8.9375 C6.73219946 12.63889022 7.09266583 15.81394555 4.75 18.9375 C4.255 19.2675 3.76 19.5975 3.25 19.9375 C2.59 19.6075 1.93 19.2775 1.25 18.9375 C0.65644386 16.28889573 0.50790731 13.64552678 0.25 10.9375 C-0.41 10.9375 -1.07 10.9375 -1.75 10.9375 C-3.08783393 10.62271554 -4.42203709 10.29162344 -5.75 9.9375 C-5.75 8.9475 -5.75 7.9575 -5.75 6.9375 C-6.41 6.9375 -7.07 6.9375 -7.75 6.9375 C-7.75 5.9475 -7.75 4.9575 -7.75 3.9375 C-8.7090625 3.504375 -8.7090625 3.504375 -9.6875 3.0625 C-11.75 1.9375 -11.75 1.9375 -12.75 -0.0625 C-8.55888342 -2.15805829 -4.34954595 -1.23237135 0 0 Z M2.25 5.9375 C3.25 8.9375 3.25 8.9375 3.25 8.9375 Z " fill="#73CCF1" transform="translate(45.75,120.0625)"/>
<path d="M0 0 C3.5 1.5 3.5 1.5 6 3 C3 4 3 4 0 3 C-2.33299825 2.96045766 -4.66708189 2.95598268 -7 3 C-7 3.66 -7 4.32 -7 5 C-6.01 5.66 -5.02 6.32 -4 7 C-4 7.99 -4 8.98 -4 10 C-3.34 10 -2.68 10 -2 10 C-1.7525 10.9075 -1.505 11.815 -1.25 12.75 C0.03981342 16.10351489 1.31971042 17.67708236 4 20 C3.67 20.99 3.34 21.98 3 23 C-0.76544398 22.45619409 -2.11096109 21.05869572 -4.4375 18.125 C-6.54769993 15.57102412 -7.91415634 14.04959856 -10.8125 12.375 C-13.84901743 10.4663319 -14.1718311 8.38796368 -15 5 C-9.69818772 0.5818231 -6.91522623 -0.87812397 0 0 Z " fill="#95C6D7" transform="translate(42,117)"/>
<path d="M0 0 C0.33 0.66 0.66 1.32 1 2 C2.98 1.67 4.96 1.34 7 1 C7 1.66 7 2.32 7 3 C8.85625 3.185625 8.85625 3.185625 10.75 3.375 C13.8762197 3.75746305 16.28879237 4.30549523 19 6 C17.63629701 8.99220268 16.05091917 11.29026529 13.875 13.75 C13.33617188 14.36359375 12.79734375 14.9771875 12.2421875 15.609375 C11.83226563 16.06828125 11.42234375 16.5271875 11 17 C7.03126566 15.67708855 6.70094963 14.08850262 4.8125 10.4375 C4.28269531 9.42558594 3.75289062 8.41367188 3.20703125 7.37109375 C2.80871094 6.58863281 2.41039063 5.80617187 2 5 C-0.64 5 -3.28 5 -6 5 C-5.34 4.01 -4.68 3.02 -4 2 C-2.68 2 -1.36 2 0 2 C0 1.34 0 0.68 0 0 Z " fill="#EFE0DE" transform="translate(90,176)"/>
<path d="M0 0 C0 1.32 0 2.64 0 4 C0.91523438 4.12117188 1.83046875 4.24234375 2.7734375 4.3671875 C4.55621094 4.61855469 4.55621094 4.61855469 6.375 4.875 C7.55835938 5.03742188 8.74171875 5.19984375 9.9609375 5.3671875 C13 6 13 6 15 8 C15.14497985 10.58064129 15.18677545 13.04943884 15.125 15.625 C15.11597656 16.33140625 15.10695312 17.0378125 15.09765625 17.765625 C15.07407603 19.51056098 15.03820461 21.25532295 15 23 C14.67 23 14.34 23 14 23 C14 18.38 14 13.76 14 9 C11.916875 9.0825 9.83375 9.165 7.6875 9.25 C4.13671875 9.390625 4.13671875 9.390625 1 9 C-0.91796875 6.984375 -0.91796875 6.984375 -2 5 C-2.05418326 7.08304538 -2.09287551 9.16649768 -2.125 11.25 C-2.14820313 12.41015625 -2.17140625 13.5703125 -2.1953125 14.765625 C-2.0103949 17.82786046 -1.60823023 19.44202751 0 22 C-1.32 21.67 -2.64 21.34 -4 21 C-4.33 18.03 -4.66 15.06 -5 12 C-5.99 11.67 -6.98 11.34 -8 11 C-8 13.64 -8 16.28 -8 19 C-10 17 -10 17 -10.375 13.25 C-10.26364081 8.86722061 -8.83349387 6.38445101 -6 3 C-2.6 0 -2.6 0 0 0 Z " fill="#8EC8E1" transform="translate(176,119)"/>
<path d="M0 0 C1.27875 -0.061875 2.5575 -0.12375 3.875 -0.1875 C4.95394531 -0.23970703 4.95394531 -0.23970703 6.0546875 -0.29296875 C6.69664063 -0.19628906 7.33859375 -0.09960938 8 0 C10.31323995 3.46985992 10.03975162 4.98288704 9.42578125 8.9921875 C8.89999623 11.47157739 8.07459989 13.70752024 7 16 C5.02 16 3.04 16 1 16 C-1.25929298 11.48141403 -1.23967948 7.95337583 -1 3 C-0.67 2.01 -0.34 1.02 0 0 Z " fill="#E9C573" transform="translate(106,59)"/>
<path d="M0 0 C3.74193877 2.24516326 5.20504785 3.96125139 7.125 7.875 C7.69945725 10.5768964 7.93401142 13.10566563 8.125 15.875 C7.465 15.545 6.805 15.215 6.125 14.875 C5.70448887 13.42913296 5.33720044 11.96753432 5 10.5 C3.92629936 7.05024246 3.92629936 7.05024246 1.3984375 4.61328125 C-4.64514195 2.22151718 -10.60293463 2.3544993 -16.875 3.875 C-17.205 6.515 -17.535 9.155 -17.875 11.875 C-19.195 11.875 -20.515 11.875 -21.875 11.875 C-21.52713292 13.85036745 -21.52713292 13.85036745 -20.875 15.875 C-20.215 16.205 -19.555 16.535 -18.875 16.875 C-19.865 19.35 -19.865 19.35 -20.875 21.875 C-23.52999376 19.22000624 -23.20397553 17.82536703 -23.25 14.125 C-23.15591781 8.88775815 -22.59566138 5.79677822 -18.875 1.875 C-13.75779532 -2.6401806 -6.1731786 -2.23511639 0 0 Z " fill="#DE7E78" transform="translate(117.875,54.125)"/>
<path d="M0 0 C2.31 0.66 4.62 1.32 7 2 C6.01 2.33 5.02 2.66 4 3 C3.29094062 4.98536627 2.63305821 6.98910922 2 9 C0.75775825 11.3981501 -0.60925157 13.68208596 -2 16 C-5.38278048 14.87240651 -6.41885899 13.75475825 -8.75 11.125 C-9.38421875 10.42632812 -10.0184375 9.72765625 -10.671875 9.0078125 C-11.11015625 8.34523437 -11.5484375 7.68265625 -12 7 C-11.67 6.01 -11.34 5.02 -11 4 C-5.555 3.01 -5.555 3.01 0 2 C0 1.34 0 0.68 0 0 Z " fill="#F0E5E1" transform="translate(123,177)"/>
<path d="M0 0 C1.9375 0.8125 1.9375 0.8125 4 2 C4.33 2.99 4.66 3.98 5 5 C4.34 5 3.68 5 3 5 C3.2165625 5.59167969 3.433125 6.18335938 3.65625 6.79296875 C6.42179262 14.64147627 6.42179262 14.64147627 6 19 C2.25 20.125 2.25 20.125 0 19 C0 19.66 0 20.32 0 21 C-0.99 20.67 -1.98 20.34 -3 20 C-3.13058477 13.47076137 -2.87025438 7.31210853 -1 1 C-0.67 0.67 -0.34 0.34 0 0 Z " fill="#2D1F1B" transform="translate(109,183)"/>
<path d="M0 0 C0 0.33 0 0.66 0 1 C-1.65 1 -3.3 1 -5 1 C-5 1.66 -5 2.32 -5 3 C-6.32 3.33 -7.64 3.66 -9 4 C-8.91284983 5.93833996 -8.80467036 7.8757429 -8.6875 9.8125 C-8.62949219 10.89144531 -8.57148438 11.97039062 -8.51171875 13.08203125 C-7.95615606 16.25001084 -7.35283608 16.97235264 -5 19 C-5.2818047 21.32488881 -5.95446418 22.90892835 -7 25 C-10.16115776 23.63016497 -10.9927092 23.0109362 -13 20 C-13.4140625 17.30078125 -13.4140625 17.30078125 -13.625 14.3125 C-13.69976562 13.31863281 -13.77453125 12.32476562 -13.8515625 11.30078125 C-13.90054688 10.54152344 -13.94953125 9.78226563 -14 9 C-13.01 9.33 -12.02 9.66 -11 10 C-11.268125 8.9275 -11.53625 7.855 -11.8125 6.75 C-12 3 -12 3 -10 0.5 C-6.2071345 -1.39643275 -4.05974981 -0.95523525 0 0 Z " fill="#F07568" transform="translate(157,72)"/>
<path d="M0 0 C4.41835934 0.26777935 7.45779945 2.08494436 10.66015625 5 C12.92405664 8.37934985 12.47521275 11.33164018 11.8671875 15.23046875 C10.5073937 19.57323362 8.0826136 22.70999343 5 26 C4.34 25.67 3.68 25.34 3 25 C3.4979837 21.26512223 3.87491756 19.18762365 6 16 C6.36420713 11.17425558 5.75486327 7.49683714 4 3 C2.35 3 0.7 3 -1 3 C-0.67 2.01 -0.34 1.02 0 0 Z " fill="#EB7567" transform="translate(160,70)"/>
<path d="M0 0 C0.66 0 1.32 0 2 0 C4.64933344 4.52594463 5.66779596 7.75303174 5 13 C3.1875 15.9375 3.1875 15.9375 1 18 C0.01 18 -0.98 18 -2 18 C-2.08096803 16.54257537 -2.13917774 15.08387193 -2.1875 13.625 C-2.22230469 12.81289062 -2.25710937 12.00078125 -2.29296875 11.1640625 C-2.19628906 10.44992188 -2.09960938 9.73578125 -2 9 C-1.01 8.34 -0.02 7.68 1 7 C0.67 6.34 0.34 5.68 0 5 C-2.97 5 -5.94 5 -9 5 C-9 4.01 -9 3.02 -9 2 C-2.25 0.875 -2.25 0.875 0 2 C0 1.34 0 0.68 0 0 Z " fill="#D4BBBC" transform="translate(162,73)"/>
<path d="M0 0 C0.99 0.495 0.99 0.495 2 1 C2.625 3.5625 2.625 3.5625 3 6 C4.32 6.33 5.64 6.66 7 7 C7 7.66 7 8.32 7 9 C10.465 8.505 10.465 8.505 14 8 C13.67 8.99 13.34 9.98 13 11 C10.03 10.505 10.03 10.505 7 10 C7 10.66 7 11.32 7 12 C9.64 12 12.28 12 15 12 C15 12.33 15 12.66 15 13 C11.04 13 7.08 13 3 13 C3.33 17.95 3.66 22.9 4 28 C0.17342192 24.17342192 -0.11195699 18.48776366 -0.1953125 13.28125 C-0.182248 11.68738122 -0.15873998 10.09356518 -0.125 8.5 C-0.11597656 7.67757812 -0.10695313 6.85515625 -0.09765625 6.0078125 C-0.07436865 4.00507917 -0.03850959 2.00249846 0 0 Z " fill="#513D30" transform="translate(87,123)"/>
<path d="M0 0 C3.95781786 0.27612683 5.69956508 0.74053348 8.75 3.375 C12.98802395 8.31936128 12.98802395 8.31936128 13.046875 11.6640625 C12.94890625 12.64117187 12.8509375 13.61828125 12.75 14.625 C12.61851563 16.09839844 12.61851563 16.09839844 12.484375 17.6015625 C12.24460937 18.78878906 12.24460937 18.78878906 12 20 C11.34 20.33 10.68 20.66 10 21 C9.99742188 20.31292969 9.99484375 19.62585938 9.9921875 18.91796875 C9.87401901 16.16464298 9.67512964 13.67455205 9 11 C6.21587274 8.94106847 6.21587274 8.94106847 3 8 C1.125 6.625 1.125 6.625 0 5 C-0.1875 2.3125 -0.1875 2.3125 0 0 Z " fill="#ED7568" transform="translate(64,70)"/>
<path d="M0 0 C1.875 0.1875 1.875 0.1875 4 1 C5.25 3.5625 5.25 3.5625 6 6 C5.34 6 4.68 6 4 6 C3.85304688 7.12019531 3.70609375 8.24039063 3.5546875 9.39453125 C3.32953502 10.86740373 3.10289435 12.34004927 2.875 13.8125 C2.73578125 14.91948242 2.73578125 14.91948242 2.59375 16.04882812 C1.95220307 19.98721346 1.45393498 21.66711435 -1.8125 24.0625 C-5.1071068 25.031502 -6.62618108 25.12276605 -9.875 24.1875 C-10.65617187 23.97480469 -11.43734375 23.76210937 -12.2421875 23.54296875 C-12.82226562 23.36378906 -13.40234375 23.18460938 -14 23 C-14 22.67 -14 22.34 -14 22 C-10.7 21.67 -7.4 21.34 -4 21 C-4.061875 20.071875 -4.12375 19.14375 -4.1875 18.1875 C-4 15 -4 15 -2.625 13.125 C-1 12 -1 12 1 12 C1.02698189 10.37509046 1.04638757 8.75005367 1.0625 7.125 C1.07410156 6.22007813 1.08570312 5.31515625 1.09765625 4.3828125 C1.16249257 1.9831415 1.16249257 1.9831415 0 0 Z " fill="#EF776B" transform="translate(117,58)"/>
<path d="M0 0 C3.77748238 2.1671612 5.36000677 4.10564784 6.625 8.375 C6.94079671 11.74004693 7.08948136 15.02108266 6.625 18.375 C5.965 19.035 5.305 19.695 4.625 20.375 C4.65980469 19.63894531 4.69460937 18.90289062 4.73046875 18.14453125 C5.12568981 10.68439886 5.12568981 10.68439886 1.625 4.375 C-1.27746198 2.29118114 -3.86139005 1.02566851 -7.375 0.375 C-6.715 2.685 -6.055 4.995 -5.375 7.375 C-6.365 7.375 -7.355 7.375 -8.375 7.375 C-9.5 2.625 -9.5 2.625 -8.375 0.375 C-9.8585001 0.79757276 -11.33676424 1.23856322 -12.8125 1.6875 C-13.63621094 1.93113281 -14.45992187 2.17476563 -15.30859375 2.42578125 C-15.99050781 2.73902344 -16.67242187 3.05226563 -17.375 3.375 C-17.705 4.365 -18.035 5.355 -18.375 6.375 C-19.365 6.375 -20.355 6.375 -21.375 6.375 C-21.375 7.035 -21.375 7.695 -21.375 8.375 C-22.035 8.045 -22.695 7.715 -23.375 7.375 C-18.84680234 -2.21412445 -9.12904401 -3.98662839 0 0 Z " fill="#CD8079" transform="translate(71.375,69.625)"/>
<path d="M0 0 C0.99 0.495 0.99 0.495 2 1 C2 1.66 2 2.32 2 3 C6.8870428 4.5638537 12.1129572 4.5638537 17 3 C16.06479312 6.14569587 15.29872512 7.7510624 12.75 9.875 C9.2492971 11.30710573 7.57255612 11.21618932 4 10 C1.25936485 7.4036088 0.08676516 5.97610806 -0.25 2.1875 C-0.1675 1.465625 -0.085 0.74375 0 0 Z " fill="#7FC6D3" transform="translate(55,84)"/>
<path d="M0 0 C5.27255152 0.10583589 8.69239279 2.94706206 12.375 6.5 C14.65719901 9.92329851 14.67241163 11.34137668 14.6875 15.375 C14.70425781 16.40367187 14.72101563 17.43234375 14.73828125 18.4921875 C14.33207915 21.8553662 13.29937719 23.7479883 11.375 26.5 C10.375 23.5 10.375 23.5 11.375 20.5 C11.64620954 18.15502211 11.64620954 18.15502211 11.6875 15.625 C11.72488281 14.78195313 11.76226562 13.93890625 11.80078125 13.0703125 C11.21078581 9.50868864 9.97683501 7.98337748 7.375 5.5 C4.14013803 4.26324245 4.14013803 4.26324245 0.625 3.6875 C-0.54546875 3.45417969 -1.7159375 3.22085938 -2.921875 2.98046875 C-3.81390625 2.82191406 -4.7059375 2.66335937 -5.625 2.5 C-3.625 0.5 -3.625 0.5 0 0 Z " fill="#87CBDF" transform="translate(181.625,116.5)"/>
<path d="M0 0 C2.31395519 1.15697759 4.56997528 2.32931905 6.8125 3.625 C11.95216961 5.84211238 16.65451053 5.29587624 22 4 C22.33 4.99 22.66 5.98 23 7 C17.07065214 9.67087742 10.71862055 10.34056854 4.5078125 8.1015625 C2.62458142 7.15659602 0.8037424 6.08905202 -1 5 C-0.67 3.35 -0.34 1.7 0 0 Z " fill="#F9EDE5" transform="translate(49,93)"/>
<path d="M0 0 C0.99 0 1.98 0 3 0 C5.19140625 2.265625 5.19140625 2.265625 7.5625 5.25 C8.34753906 6.22453125 9.13257813 7.1990625 9.94140625 8.203125 C11.59231117 10.44610018 12.88371838 12.46573903 14 15 C12.68 15.33 11.36 15.66 10 16 C8.53618641 14.42173185 7.07914837 12.83717771 5.625 11.25 C4.81289063 10.36828125 4.00078125 9.4865625 3.1640625 8.578125 C1.33018934 6.39336636 -0.03649165 4.66996289 -1 2 C-0.67 1.34 -0.34 0.68 0 0 Z " fill="#CC4760" transform="translate(32,124)"/>
<path d="M0 0 C1.32 0.33 2.64 0.66 4 1 C3.360625 1.78375 2.72125 2.5675 2.0625 3.375 C-1.67075038 8.12640958 -1.39754329 12.11081222 -1 18 C-0.14939987 20.97980201 -0.14939987 20.97980201 1 23 C-0.375 24.5 -0.375 24.5 -2 26 C-2.66 26 -3.32 26 -4 26 C-4.24941254 22.93793523 -4.47514145 19.87716917 -4.6875 16.8125 C-4.76033203 15.94818359 -4.83316406 15.08386719 -4.90820312 14.19335938 C-5.22693852 9.29983354 -5.4072159 5.90899116 -2 2 C-1.34 2 -0.68 2 0 2 C0 1.34 0 0.68 0 0 Z " fill="#FCEDEB" transform="translate(144,70)"/>
<path d="M0 0 C0.33 0 0.66 0 1 0 C1.33 3.3 1.66 6.6 2 10 C1.34 10 0.68 10 0 10 C0 10.99 0 11.98 0 13 C1.32 13.33 2.64 13.66 4 14 C4 14.66 4 15.32 4 16 C4.99 16 5.98 16 7 16 C7 15.34 7 14.68 7 14 C7.99 14 8.98 14 10 14 C10 14.66 10 15.32 10 16 C10.66 16.33 11.32 16.66 12 17 C11.67 17.99 11.34 18.98 11 20 C9.22888156 19.52188823 7.45811517 19.0424722 5.6875 18.5625 C4.70136719 18.29566406 3.71523437 18.02882812 2.69921875 17.75390625 C0.78482474 17.21920575 -1.11433615 16.62855462 -3 16 C-2.30834212 10.58201328 -1.24200752 5.3177215 0 0 Z " fill="#E7CAB4" transform="translate(100,163)"/>
<path d="M0 0 C3.63 0 7.26 0 11 0 C11 2.31 11 4.62 11 7 C7.37 7 3.74 7 0 7 C0 4.69 0 2.38 0 0 Z " fill="#F2655A" transform="translate(178,129)"/>
<path d="M0 0 C2 3 2 3 1.4375 5.875 C-0.8062378 10.75269087 -3.632584 13.21110616 -8.25 15.875 C-12.70853231 17.21255969 -16.50482765 17.28295692 -21 16 C-21.33 15.34 -21.66 14.68 -22 14 C-22.99 13.67 -23.98 13.34 -25 13 C-25 12.01 -25 11.02 -25 10 C-24.175 10.495 -23.35 10.99 -22.5 11.5 C-17.62746431 13.58822958 -13.73444909 14.05660287 -8.81640625 12.15625 C-4.78668334 9.96762985 -2.63863632 8.0187312 -1 3.6875 C-0.67 2.470625 -0.34 1.25375 0 0 Z " fill="#FBE3DD" transform="translate(125,70)"/>
<path d="M0 0 C0.8971875 0.5259375 0.8971875 0.5259375 1.8125 1.0625 C1.19795304 5.05705527 -0.89396737 7.80716336 -3.1875 11.0625 C-4.5075 10.7325 -5.8275 10.4025 -7.1875 10.0625 C-7.1875 7.4225 -7.1875 4.7825 -7.1875 2.0625 C-6.5275 2.0625 -5.8675 2.0625 -5.1875 2.0625 C-5.1875 1.4025 -5.1875 0.7425 -5.1875 0.0625 C-2.1875 -0.9375 -2.1875 -0.9375 0 0 Z " fill="#E17565" transform="translate(55.1875,75.9375)"/>
<path d="M0 0 C1.70884005 1.62339805 3.37446717 3.29319053 5 5 C5 5.66 5 6.32 5 7 C6.98 7 8.96 7 11 7 C11 7.99 11 8.98 11 10 C9.01432292 9.96744792 7.02864583 9.93489583 5.04296875 9.90234375 C2.79694539 9.91736783 2.79694539 9.91736783 0 11 C-2.6875 10.0625 -2.6875 10.0625 -5 9 C-5 8.01 -5 7.02 -5 6 C-3.35 6 -1.7 6 0 6 C0 4.02 0 2.04 0 0 Z " fill="#EE755E" transform="translate(102,68)"/>
<path d="M0 0 C-0.33 3.3 -0.66 6.6 -1 10 C-2.65 10 -4.3 10 -6 10 C-6.28875 9.360625 -6.5775 8.72125 -6.875 8.0625 C-7.82823451 5.84793921 -7.82823451 5.84793921 -10 5 C-9.1875 3.0625 -9.1875 3.0625 -8 1 C-5 0 -5 0 0 0 Z " fill="#F3EEF0" transform="translate(63,70)"/>
<path d="M0 0 C0.99 0 1.98 0 3 0 C2.835 0.928125 2.67 1.85625 2.5 2.8125 C1.76299718 7.85733621 1.91723185 12.91435711 2 18 C0.35 17.67 -1.3 17.34 -3 17 C-2.67 16.01 -2.34 15.02 -2 14 C-2.99 13.67 -3.98 13.34 -5 13 C-5 11.68 -5 10.36 -5 9 C-3.68 9 -2.36 9 -1 9 C-1.20625 8.2575 -1.4125 7.515 -1.625 6.75 C-2.04408751 3.67669159 -1.61949011 2.57213134 0 0 Z " fill="#F77162" transform="translate(101,57)"/>
<path d="M0 0 C-0.11458693 1.43836751 -0.24209116 2.87570966 -0.375 4.3125 C-0.44460937 5.11300781 -0.51421875 5.91351563 -0.5859375 6.73828125 C-1 9 -1 9 -3 12 C-3.125 6.25 -3.125 6.25 -2 4 C-3.32 4 -4.64 4 -6 4 C-5.67 6.64 -5.34 9.28 -5 12 C-7 11 -7 11 -9 9 C-9.36933645 6.24627091 -9.18336678 3.79634339 -9 1 C-5.64919071 -1.10976881 -3.77897651 -1.0497157 0 0 Z " fill="#E6B113" transform="translate(114,61)"/>
<path d="M0 0 C0.45375 0.66 0.9075 1.32 1.375 2 C1.91125 2.66 2.4475 3.32 3 4 C3.66 4 4.32 4 5 4 C6.125 7.75 6.125 7.75 5 10 C4.77532169 11.53668865 4.59203195 13.07968054 4.4375 14.625 C4.31181641 15.85089844 4.31181641 15.85089844 4.18359375 17.1015625 C4.12300781 17.72804687 4.06242187 18.35453125 4 19 C2 17 2 17 1.875 14.375 C1.91625 13.59125 1.9575 12.8075 2 12 C0.68 11.34 -0.64 10.68 -2 10 C-1.85950482 8.52031676 -1.71245174 7.04125484 -1.5625 5.5625 C-1.48128906 4.73878906 -1.40007813 3.91507812 -1.31640625 3.06640625 C-1 1 -1 1 0 0 Z " fill="#ECFAF7" transform="translate(20,117)"/>
<path d="M0 0 C1.485 0.99 1.485 0.99 3 2 C3.29296875 4.8203125 3.29296875 4.8203125 3.1875 8.125 C3.16042969 9.22070312 3.13335937 10.31640625 3.10546875 11.4453125 C3.07066406 12.28835937 3.03585938 13.13140625 3 14 C3.66 14.33 4.32 14.66 5 15 C5 15.99 5 16.98 5 18 C8.63 18 12.26 18 16 18 C16 13.71 16 9.42 16 5 C16.33 5 16.66 5 17 5 C17 9.62 17 14.24 17 19 C14.751875 19.103125 12.50375 19.20625 10.1875 19.3125 C8.29064453 19.39951172 8.29064453 19.39951172 6.35546875 19.48828125 C3 19 3 19 1.0625 16.9375 C-0.23508974 13.35004601 -0.29425143 10.49496772 -0.1875 6.6875 C-0.14689453 4.80611328 -0.14689453 4.80611328 -0.10546875 2.88671875 C-0.07066406 1.93410156 -0.03585938 0.98148437 0 0 Z " fill="#BD7071" transform="translate(173,123)"/>
<path d="M0 0 C0.804375 0.309375 1.60875 0.61875 2.4375 0.9375 C6.04756952 2.0141874 9.30862818 2.40194749 13.046875 2.65625 C15 3 15 3 17 5 C17.14497985 7.58064129 17.18677545 10.04943884 17.125 12.625 C17.11597656 13.33140625 17.10695312 14.0378125 17.09765625 14.765625 C17.07407603 16.51056098 17.03820461 18.25532295 17 20 C16.67 20 16.34 20 16 20 C16 15.38 16 10.76 16 6 C13.916875 6.0825 11.83375 6.165 9.6875 6.25 C6.13671875 6.390625 6.13671875 6.390625 3 6 C1.08203125 4.109375 1.08203125 4.109375 0 2 C0 1.34 0 0.68 0 0 Z " fill="#ABC2D1" transform="translate(174,122)"/>
<path d="M0 0 C-1.37154504 2.95409701 -2.98863724 5.44008376 -5 8 C-6.65 7.67 -8.3 7.34 -10 7 C-10 6.34 -10 5.68 -10 5 C-10.66 4.67 -11.32 4.34 -12 4 C-12 2.68 -12 1.36 -12 0 C-11.05125 0.020625 -10.1025 0.04125 -9.125 0.0625 C-0.375 -0.1125 -0.375 -0.1125 0 0 Z " fill="#EBE5F0" transform="translate(109,182)"/>
<path d="M0 0 C2.625 0.9375 2.625 0.9375 5 2 C5.04241723 4.33294775 5.04092937 6.66702567 5 9 C4 10 4 10 0.9375 10.0625 C-0.031875 10.041875 -1.00125 10.02125 -2 10 C-2 7.03 -2 4.06 -2 1 C-1.34 0.67 -0.68 0.34 0 0 Z " fill="#FAE6BB" transform="translate(72,131)"/>
<path d="M0 0 C2.475 0.495 2.475 0.495 5 1 C5.13277344 1.67546875 5.26554688 2.3509375 5.40234375 3.046875 C5.57894531 3.93890625 5.75554687 4.8309375 5.9375 5.75 C6.19853516 7.07257813 6.19853516 7.07257813 6.46484375 8.421875 C6.79803775 10.02704316 7.17495262 11.62451441 7.6171875 13.203125 C8.15511564 15.72809384 7.29543563 16.81821367 6 19 C5.62875 19.7425 5.2575 20.485 4.875 21.25 C4.441875 22.11625 4.441875 22.11625 4 23 C2.68 22.67 1.36 22.34 0 22 C0.48726562 21.29875 0.97453125 20.5975 1.4765625 19.875 C3.19777035 16.62677184 3.40292172 14.64843804 3.375 11 C3.38273438 9.989375 3.39046875 8.97875 3.3984375 7.9375 C2.95083844 4.63755402 1.88496045 2.71274731 0 0 Z " fill="#DEF8FB" transform="translate(192,121)"/>
<path d="M0 0 C0.66 0 1.32 0 2 0 C1.83628906 0.53109375 1.67257813 1.0621875 1.50390625 1.609375 C0.88643623 4.53876764 0.90498075 7.25822936 0.9375 10.25 C0.95103516 11.86648437 0.95103516 11.86648437 0.96484375 13.515625 C0.97644531 14.33546875 0.98804688 15.1553125 1 16 C1.99 15.67 2.98 15.34 4 15 C4.66 17.31 5.32 19.62 6 22 C2.8676555 21.77626111 1.94328504 20.94013421 -0.25 18.625 C-2.97489592 14.20509008 -2.64977978 9.00179319 -2 4 C-0.9765625 1.6640625 -0.9765625 1.6640625 0 0 Z " fill="#82C7E0" transform="translate(26,123)"/>
<path d="M0 0 C1.32 0 2.64 0 4 0 C4.33 1.65 4.66 3.3 5 5 C3.68 5.33 2.36 5.66 1 6 C1 6.66 1 7.32 1 8 C3.475 8.99 3.475 8.99 6 10 C6 10.66 6 11.32 6 12 C6.99 12 7.98 12 9 12 C9 12.66 9 13.32 9 14 C6.36 14 3.72 14 1 14 C1 13.34 1 12.68 1 12 C1.66 12 2.32 12 3 12 C3 11.34 3 10.68 3 10 C1.68 9.67 0.36 9.34 -1 9 C-0.67 6.03 -0.34 3.06 0 0 Z " fill="#F3CFCB" transform="translate(153,81)"/>
<path d="M0 0 C0.5775 0.763125 1.155 1.52625 1.75 2.3125 C4.57692233 5.68910167 6.36120646 7.79036066 10.83984375 8.36328125 C12.37318359 8.33814453 12.37318359 8.33814453 13.9375 8.3125 C15.46697266 8.30669922 15.46697266 8.30669922 17.02734375 8.30078125 C20.03509637 7.99644886 22.26880782 7.26248479 25 6 C25 6.99 25 7.98 25 9 C21.53777385 10.06723961 18.35960734 10.10173486 14.75 10.0625 C13.67234375 10.05347656 12.5946875 10.04445312 11.484375 10.03515625 C10.66453125 10.02355469 9.8446875 10.01195312 9 10 C9 10.66 9 11.32 9 12 C5.64662411 11.00305041 4.27286429 10.41434947 2.3125 7.4375 C1.6628125 6.2309375 1.6628125 6.2309375 1 5 C0.34 4.67 -0.32 4.34 -1 4 C-0.67 2.68 -0.34 1.36 0 0 Z " fill="#DEF7FD" transform="translate(167,138)"/>
<path d="M0 0 C0.66 1.32 1.32 2.64 2 4 C1.01 4 0.02 4 -1 4 C0.07243992 8.88403704 0.07243992 8.88403704 2.75 13 C5.86916365 14.38629496 7.75380795 13.89788291 11 13 C14.29922197 10.80051868 14.42809901 10.49675855 15.1875 6.875 C15.455625 5.59625 15.72375 4.3175 16 3 C16.33 3 16.66 3 17 3 C16.91253716 4.43861294 16.80434652 5.87597508 16.6875 7.3125 C16.62949219 8.11300781 16.57148437 8.91351563 16.51171875 9.73828125 C15.89759642 12.4526082 15.23433044 13.36586216 13 15 C10.0080821 15.9356747 7.12606878 16.19743592 4 16 C1.07856583 14.23496686 -0.47923817 13.04152365 -2 10 C-2.16796875 8.125 -2.16796875 8.125 -2.1875 6 C-2.20167969 5.29875 -2.21585938 4.5975 -2.23046875 3.875 C-2 2 -2 2 0 0 Z " fill="#E5D8D8" transform="translate(56,80)"/>
<path d="M0 0 C1.9375 0.8125 1.9375 0.8125 4 2 C4.33 2.99 4.66 3.98 5 5 C4.34 5 3.68 5 3 5 C2.87625 5.598125 2.7525 6.19625 2.625 6.8125 C1.62493081 10.31274215 -0.42976073 12.54658979 -3 15 C-2.88623383 12.87436897 -2.75864369 10.7494739 -2.625 8.625 C-2.55539063 7.44164062 -2.48578125 6.25828125 -2.4140625 5.0390625 C-2 2 -2 2 0 0 Z " fill="#3A1E14" transform="translate(109,183)"/>
<path d="M0 0 C0.52078125 0.66515625 1.0415625 1.3303125 1.578125 2.015625 C1.248125 2.675625 0.918125 3.335625 0.578125 4.015625 C-0.411875 3.355625 -1.401875 2.695625 -2.421875 2.015625 C-4.4115745 1.62548784 -6.41207369 1.28359851 -8.421875 1.015625 C-7.596875 1.77875 -6.771875 2.541875 -5.921875 3.328125 C-3.421875 6.015625 -3.421875 6.015625 -3.421875 9.015625 C-4.76108338 7.89762514 -6.09310056 6.77100603 -7.421875 5.640625 C-8.535625 4.70089844 -8.535625 4.70089844 -9.671875 3.7421875 C-10.249375 3.17242187 -10.826875 2.60265625 -11.421875 2.015625 C-11.421875 1.355625 -11.421875 0.695625 -11.421875 0.015625 C-12.741875 -0.314375 -14.061875 -0.644375 -15.421875 -0.984375 C-13.34189674 -1.2609039 -11.2575442 -1.50467575 -9.171875 -1.734375 C-7.43164062 -1.94320312 -7.43164062 -1.94320312 -5.65625 -2.15625 C-2.421875 -1.984375 -2.421875 -1.984375 0 0 Z " fill="#CA887F" transform="translate(93.421875,181.984375)"/>
<path d="M0 0 C0.33 0.99 0.66 1.98 1 3 C1.66 3 2.32 3 3 3 C3.33 6.96 3.66 10.92 4 15 C3.01 15.495 3.01 15.495 2 16 C1.34 15.67 0.68 15.34 0 15 C0 13.02 0 11.04 0 9 C-0.66 9 -1.32 9 -2 9 C-2.20140476 5.37471432 -1.85776765 3.13498292 0 0 Z " fill="#FAF6F2" transform="translate(92,61)"/>
<path d="M0 0 C0.33 0.99 0.66 1.98 1 3 C-0.96822886 4.96822886 -4.34808709 4.66248381 -7 5 C-4.36 5.66 -1.72 6.32 1 7 C1 7.33 1 7.66 1 8 C-5.90703976 8.61669998 -9.47759424 7.11242982 -15 3 C-14.37738281 2.84789063 -13.75476563 2.69578125 -13.11328125 2.5390625 C-11.03401102 2.03951499 -11.03401102 2.03951499 -9.1875 1.375 C-6.01017333 0.83031543 -3.15186822 1.45448435 0 2 C0 1.34 0 0.68 0 0 Z " fill="#D58075" transform="translate(113,76)"/>
<path d="M0 0 C6.93 0.495 6.93 0.495 14 1 C13.01 1.33 12.02 1.66 11 2 C10.566875 2.8971875 10.566875 2.8971875 10.125 3.8125 C8.64462682 6.69100341 6.57721429 8.10099999 4 10 C3.67 9.34 3.34 8.68 3 8 C3.66 8 4.32 8 5 8 C4.67 6.35 4.34 4.7 4 3 C3.01 2.67 2.02 2.34 1 2 C1 2.66 1 3.32 1 4 C0.34 4 -0.32 4 -1 4 C-0.67 2.68 -0.34 1.36 0 0 Z " fill="#DA8581" transform="translate(127,180)"/>
<path d="M0 0 C1 5 2 10 3 15 C-1.43076923 17.09230769 -1.43076923 17.09230769 -4.3125 16.625 C-5.1478125 16.315625 -5.1478125 16.315625 -6 16 C-4.35 15.67 -2.7 15.34 -1 15 C-0.61718841 9.76824163 -1.78145293 6.62197306 -4 2 C-1 0 -1 0 0 0 Z " fill="#E4CEB6" transform="translate(120,164)"/>
<path d="M0 0 C0.33 0.66 0.66 1.32 1 2 C-0.13126558 5.39379675 -1.22666082 6.78132865 -4 9 C-6.25 8.75 -6.25 8.75 -8 8 C-8.33 8.99 -8.66 9.98 -9 11 C-9.99 11.495 -9.99 11.495 -11 12 C-11 10.02 -11 8.04 -11 6 C-10.28972656 5.65066406 -9.57945313 5.30132812 -8.84765625 4.94140625 C-7.92855469 4.48636719 -7.00945312 4.03132812 -6.0625 3.5625 C-4.68771484 2.88380859 -4.68771484 2.88380859 -3.28515625 2.19140625 C-1.09471096 1.19474606 -1.09471096 1.19474606 0 0 Z " fill="#282A25" transform="translate(124,196)"/>
<path d="M0 0 C1.875 0.1875 1.875 0.1875 4 1 C5.25 3.5625 5.25 3.5625 6 6 C5.34 6 4.68 6 4 6 C3.01 9.63 2.02 13.26 1 17 C-0.32 16.67 -1.64 16.34 -3 16 C-2.34 14.68 -1.68 13.36 -1 12 C-0.34 12 0.32 12 1 12 C1.02698189 10.37509046 1.04638757 8.75005367 1.0625 7.125 C1.07410156 6.22007813 1.08570312 5.31515625 1.09765625 4.3828125 C1.16249257 1.9831415 1.16249257 1.9831415 0 0 Z " fill="#F2755F" transform="translate(117,58)"/>
<path d="M0 0 C0.94101563 0.18046875 1.88203125 0.3609375 2.8515625 0.546875 C5.375 1.25 5.375 1.25 8.375 3.25 C7.42238281 3.21519531 6.46976563 3.18039063 5.48828125 3.14453125 C4.23402344 3.11746094 2.97976562 3.09039062 1.6875 3.0625 C0.44613281 3.02769531 -0.79523438 2.99289063 -2.07421875 2.95703125 C-6.82679198 3.34915775 -9.30703836 4.93203836 -12.625 8.25 C-13.3125 6.4375 -13.3125 6.4375 -13.625 4.25 C-10.30445032 -0.54634954 -5.33972666 -1.08853932 0 0 Z " fill="#FBDDDE" transform="translate(109.625,50.75)"/>
<path d="M0 0 C3.375 0.3125 3.375 0.3125 7 1 C7.66 1.99 8.32 2.98 9 4 C10.96752828 5.06246527 12.96587579 6.07137808 15 7 C15 8.65 15 10.3 15 12 C13.2925002 10.71937515 11.62626404 9.38232443 10 8 C10 7.34 10 6.68 10 6 C4.06 4.515 4.06 4.515 -2 3 C-1.34 2.01 -0.68 1.02 0 0 Z " fill="#E8FCFB" transform="translate(38,114)"/>
<path d="M0 0 C0.66 0 1.32 0 2 0 C1.125 7.625 1.125 7.625 0 11 C-1.32 10.67 -2.64 10.34 -4 10 C-4.33 8.35 -4.66 6.7 -5 5 C-4.34 5 -3.68 5 -3 5 C-2.5359375 4.0409375 -2.5359375 4.0409375 -2.0625 3.0625 C-1 1 -1 1 0 0 Z " fill="#EF7A76" transform="translate(105,190)"/>
<path d="M0 0 C0.99 0.33 1.98 0.66 3 1 C6.84283684 1.13973952 10.3171369 1.17851619 14 0 C13.375 2.4375 13.375 2.4375 12 5 C8.05525663 6.22725349 4.96209657 6.04879027 1 5 C0.67 3.35 0.34 1.7 0 0 Z " fill="#83C7ED" transform="translate(58,87)"/>
<path d="M0 0 C0.99 0.33 1.98 0.66 3 1 C4.15316726 7.34241995 4.09507063 13.56688704 4 20 C3.67 19.34 3.34 18.68 3 18 C2.34 18 1.68 18 1 18 C1.03480469 16.91332031 1.03480469 16.91332031 1.0703125 15.8046875 C1.17018794 10.45421756 1.16455748 6.00553918 -1 1 C-0.67 0.67 -0.34 0.34 0 0 Z " fill="#F9EDE5" transform="translate(171,72)"/>
<path d="M0 0 C3.96 0 7.92 0 12 0 C11.67 0.99 11.34 1.98 11 3 C8.03 2.505 8.03 2.505 5 2 C5 2.66 5 3.32 5 4 C7.64 4 10.28 4 13 4 C13 4.33 13 4.66 13 5 C8.71 5 4.42 5 0 5 C0 3.35 0 1.7 0 0 Z " fill="#58321E" transform="translate(89,131)"/>
<path d="M0 0 C2.97 0 5.94 0 9 0 C9 0.33 9 0.66 9 1 C6.36 1 3.72 1 1 1 C0.97294271 2.77074917 0.95357805 4.54161711 0.9375 6.3125 C0.92589844 7.29863281 0.91429688 8.28476563 0.90234375 9.30078125 C0.87670138 12.09963849 0.87670138 12.09963849 2 15 C-1 14 -1 14 -2.25 12.3125 C-3.7529049 7.67854322 -2.10123948 4.20247896 0 0 Z " fill="#F29742" transform="translate(105,58)"/>
<path d="M0 0 C0.33 0.66 0.66 1.32 1 2 C3.33744294 2.46806645 5.69739079 2.82669794 8.0625 3.125 C9.99802734 3.37636719 9.99802734 3.37636719 11.97265625 3.6328125 C12.97167969 3.75398437 13.97070312 3.87515625 15 4 C14.67 4.66 14.34 5.32 14 6 C8.59710348 7.09889421 5.18610439 7.20409437 0 5 C0 3.35 0 1.7 0 0 Z " fill="#E4C4A2" transform="translate(101,165)"/>
<path d="M0 0 C0.33 0.66 0.66 1.32 1 2 C0.175 2.969375 -0.65 3.93875 -1.5 4.9375 C-4.60263447 9.20252992 -4.520895 12.89522901 -4 18 C-4.66 17.67 -5.32 17.34 -6 17 C-7.12209744 13.05408119 -7.90521082 8.80323743 -6.015625 5.0390625 C-4.23966475 2.89746337 -2.49758074 1.24879037 0 0 Z " fill="#FDF0E2" transform="translate(127,157)"/>
<path d="M0 0 C3.96 0 7.92 0 12 0 C11.67 1.32 11.34 2.64 11 4 C7.78548731 5.60725635 4.56387464 5.05748185 1 5 C1 4.67 1 4.34 1 4 C2.98 4 4.96 4 7 4 C7 3.34 7 2.68 7 2 C4.69 1.67 2.38 1.34 0 1 C0 0.67 0 0.34 0 0 Z " fill="#8DBBD4" transform="translate(178,142)"/>
<path d="M0 0 C1.27875 -0.061875 2.5575 -0.12375 3.875 -0.1875 C4.95394531 -0.23970703 4.95394531 -0.23970703 6.0546875 -0.29296875 C6.69664063 -0.19628906 7.33859375 -0.09960938 8 0 C10.0961314 3.14419711 10.26710777 3.52126226 9.8125 7 C9.73644531 7.680625 9.66039063 8.36125 9.58203125 9.0625 C9 11 9 11 6 14 C6.66 10.04 7.32 6.08 8 2 C5.36 2.33 2.72 2.66 0 3 C0 2.01 0 1.02 0 0 Z " fill="#FAB93A" transform="translate(106,59)"/>
<path d="M0 0 C0.66 0.66 1.32 1.32 2 2 C1.625 4.125 1.625 4.125 1 6 C1 5.34 1 4.68 1 4 C-2.53586014 7.17320782 -4.58578031 9.16743695 -5 14 C-6.32 13.34 -7.64 12.68 -9 12 C-8.67 10.68 -8.34 9.36 -8 8 C-7.01 8 -6.02 8 -5 8 C-4.731875 7.4225 -4.46375 6.845 -4.1875 6.25 C-2.98280141 3.9674132 -1.59201885 2.0262058 0 0 Z " fill="#D77266" transform="translate(106,186)"/>
<path d="M0 0 C1.2065625 0.0309375 1.2065625 0.0309375 2.4375 0.0625 C2.4375 2.3725 2.4375 4.6825 2.4375 7.0625 C0.7875 7.0625 -0.8625 7.0625 -2.5625 7.0625 C-2.94383299 5.0710944 -3.27575582 3.06970923 -3.5625 1.0625 C-2.5625 0.0625 -2.5625 0.0625 0 0 Z " fill="#EA6E63" transform="translate(186.5625,128.9375)"/>
<path d="M0 0 C0.66 0.33 1.32 0.66 2 1 C1.33333333 3.66666667 0.66666667 6.33333333 0 9 C-1.00596297 8.0479279 -2.00461563 7.08812654 -3 6.125 C-3.556875 5.59132812 -4.11375 5.05765625 -4.6875 4.5078125 C-6 3 -6 3 -6 1 C-4.7934375 1.0309375 -4.7934375 1.0309375 -3.5625 1.0625 C-1.06645115 1.29633621 -1.06645115 1.29633621 0 0 Z " fill="#83C0D6" transform="translate(46,129)"/>
<path d="M0 0 C2.29160319 -0.02692484 4.58329546 -0.04636124 6.875 -0.0625 C8.15117187 -0.07410156 9.42734375 -0.08570312 10.7421875 -0.09765625 C14 0 14 0 16 1 C16 1.66 16 2.32 16 3 C16.66 3 17.32 3 18 3 C17.67 3.66 17.34 4.32 17 5 C16.34 4.505 15.68 4.01 15 3.5 C10.612634 1.306317 6.53421189 1.16801345 1.9296875 2.6796875 C0.25828767 3.3902016 -1.37558437 4.18779219 -3 5 C-3 4.34 -3 3.68 -3 3 C-2.34 3 -1.68 3 -1 3 C-0.67 2.01 -0.34 1.02 0 0 Z " fill="#DEF9FD" transform="translate(174,116)"/>
<path d="M0 0 C0.33 0 0.66 0 1 0 C1.33 1.98 1.66 3.96 2 6 C2.99 6.33 3.98 6.66 5 7 C5.33 5.68 5.66 4.36 6 3 C6.33 5.31 6.66 7.62 7 10 C6.01 9.67 5.02 9.34 4 9 C3.67 10.32 3.34 11.64 3 13 C-0.36055646 8.51925805 -0.27429625 5.39449293 0 0 Z " fill="#DA897D" transform="translate(47,80)"/>
<path d="M0 0 C4.04713445 2.07825823 6.14038454 3.81586521 8 8 C8.51293271 10.67920194 8.76896898 13.27383398 9 16 C7 15 7 15 6.2890625 13.00390625 C5.84737102 11.38004053 5.40984877 9.75503486 4.9765625 8.12890625 C3.77105036 5.50088979 2.65237584 4.99873411 0 4 C0 2.68 0 1.36 0 0 Z " fill="#D8847F" transform="translate(117,54)"/>
<path d="M0 0 C0.99 0.33 1.98 0.66 3 1 C3 1.99 3 2.98 3 4 C2.01 4 1.02 4 0 4 C-0.33 4.99 -0.66 5.98 -1 7 C-1.99 7 -2.98 7 -4 7 C-4 7.99 -4 8.98 -4 10 C-5.32 9.67 -6.64 9.34 -8 9 C-7.50628906 8.51789063 -7.01257813 8.03578125 -6.50390625 7.5390625 C-5.86324219 6.90742188 -5.22257813 6.27578125 -4.5625 5.625 C-3.92441406 4.99851563 -3.28632813 4.37203125 -2.62890625 3.7265625 C-0.92117824 2.08276939 -0.92117824 2.08276939 0 0 Z " fill="#4D2826" transform="translate(138,182)"/>
<path d="M0 0 C0.93423645 3.01031744 1.04449911 3.86650268 0 7 C-0.18490007 9.32357511 -0.18490007 9.32357511 2 12 C-1.35810395 10.61043975 -3.18586552 9.17473533 -5 6 C-5.1875 3.25 -5.1875 3.25 -5 1 C-4.67 1.66 -4.34 2.32 -4 3 C-3.01 3 -2.02 3 -1 3 C-0.67 2.01 -0.34 1.02 0 0 Z " fill="#F4DFC8" transform="translate(94,148)"/>
<path d="M0 0 C0.66 0.33 1.32 0.66 2 1 C2 1.66 2 2.32 2 3 C-1.70129297 4.69895415 -4.62166396 5.27218737 -8.6875 5.25 C-10.11642578 5.25773437 -10.11642578 5.25773437 -11.57421875 5.265625 C-14 5 -14 5 -16 3 C-15.09636719 2.95101562 -14.19273438 2.90203125 -13.26171875 2.8515625 C-12.08222656 2.77679688 -10.90273438 2.70203125 -9.6875 2.625 C-7.92986328 2.52058594 -7.92986328 2.52058594 -6.13671875 2.4140625 C-2.84300113 2.21386253 -2.84300113 2.21386253 0 0 Z " fill="#FCF4EF" transform="translate(70,97)"/>
<path d="M0 0 C0.33 0 0.66 0 1 0 C1.33 3.3 1.66 6.6 2 10 C1.34 10 0.68 10 0 10 C-0.33 10.99 -0.66 11.98 -1 13 C-1.33 13.66 -1.66 14.32 -2 15 C-1.01 15 -0.02 15 1 15 C0.67 15.66 0.34 16.32 0 17 C-0.99 16.67 -1.98 16.34 -3 16 C-2.30834212 10.58201328 -1.24200752 5.3177215 0 0 Z " fill="#EAD1BB" transform="translate(100,163)"/>
<path d="M0 0 C2.24234009 3.36351013 2.27098215 4.62310056 2.25 8.5625 C2.25515625 9.53316406 2.2603125 10.50382813 2.265625 11.50390625 C2 14 2 14 0 16 C-0.66 16 -1.32 16 -2 16 C-1.67 15.01 -1.34 14.02 -1 13 C-0.95593122 11.14635711 -0.96050608 9.29124601 -1 7.4375 C-1.11082803 2.22165605 -1.11082803 2.22165605 0 0 Z " fill="#E4FAFE" transform="translate(54,124)"/>
<path d="M0 0 C0.66 0 1.32 0 2 0 C2.33 0.66 2.66 1.32 3 2 C3.99 1.67 4.98 1.34 6 1 C5.49396008 3.16874252 5.00016187 4.99967627 4 7 C4.66 7.33 5.32 7.66 6 8 C3.03 7.505 3.03 7.505 0 7 C-0.33 6.01 -0.66 5.02 -1 4 C-0.34 4 0.32 4 1 4 C0.67 2.68 0.34 1.36 0 0 Z " fill="#E9F5FA" transform="translate(57,80)"/>
<path d="M0 0 C-0.66 1.32 -1.32 2.64 -2 4 C-2.99 4 -3.98 4 -5 4 C-5.99 5.485 -5.99 5.485 -7 7 C-7.99 6.34 -8.98 5.68 -10 5 C-9.1875 3.0625 -9.1875 3.0625 -8 1 C-5.07175348 0.02391783 -3.04386724 -0.08226668 0 0 Z " fill="#FCD5D2" transform="translate(63,70)"/>
<path d="M0 0 C3.83450856 1.54787502 6.02555699 3.93722746 8.75 7 C9.54921875 7.886875 10.3484375 8.77375 11.171875 9.6875 C13 12 13 12 13 14 C11 14 11 14 9.2734375 12.3203125 C8.64695312 11.59585938 8.02046875 10.87140625 7.375 10.125 C6.74335937 9.40570313 6.11171875 8.68640625 5.4609375 7.9453125 C4 6 4 6 4 4 C2.68 3.34 1.36 2.68 0 2 C0 1.34 0 0.68 0 0 Z " fill="#A8303B" transform="translate(33,125)"/>
<path d="M0 0 C1.423125 0.7115625 1.423125 0.7115625 2.875 1.4375 C7.4465467 3.42757782 12.06888627 3.71226902 17 4 C15.68 4.99 14.36 5.98 13 7 C12.34 6.67 11.68 6.34 11 6 C8.6670134 5.95977609 6.33293334 5.95679753 4 6 C4 5.34 4 4.68 4 4 C3.01 3.67 2.02 3.34 1 3 C0.67 2.01 0.34 1.02 0 0 Z " fill="#FDEBE5" transform="translate(99,80)"/>
<path d="M0 0 C2.475 0.99 2.475 0.99 5 2 C5 2.66 5 3.32 5 4 C5.99 4.33 6.98 4.66 8 5 C7.01 6.485 7.01 6.485 6 8 C4.68 7.67 3.36 7.34 2 7 C1.34 4.69 0.68 2.38 0 0 Z " fill="#EA7167" transform="translate(114,190)"/>
<path d="M0 0 C0.598125 0.226875 1.19625 0.45375 1.8125 0.6875 C0.36996343 4.05341866 -1.52014727 6.19797079 -4.1875 8.6875 C-4.875 5.875 -4.875 5.875 -5.1875 2.6875 C-3.62441875 0.13720955 -3.00012909 -0.42858987 0 0 Z " fill="#E8EAE1" transform="translate(107.1875,181.3125)"/>
<path d="M0 0 C0.33 2.31 0.66 4.62 1 7 C-2 7 -2 7 -5 6 C-5 4.35 -5 2.7 -5 1 C-2 0 -2 0 0 0 Z " fill="#1E1F1E" transform="translate(78,107)"/>
<path d="M0 0 C3 1 3 1 4 3 C4.13415472 5.6723621 4.04318541 8.32250488 4 11 C3.34 11 2.68 11 2 11 C1.67 11.99 1.34 12.98 1 14 C0.34 13.67 -0.32 13.34 -1 13 C-0.649375 12.34 -0.29875 11.68 0.0625 11 C1.32853409 6.9486909 0.70614482 4.16625445 0 0 Z " fill="#ED8847" transform="translate(114,59)"/>
<path d="M0 0 C0.99 0.33 1.98 0.66 3 1 C3 1.66 3 2.32 3 3 C4.91697937 2.85833643 6.83357723 2.71150416 8.75 2.5625 C10.35101563 2.44068359 10.35101563 2.44068359 11.984375 2.31640625 C14.43679962 2.05909227 16.63921291 1.68187782 19 1 C19 1.99 19 2.98 19 4 C10.585 4.495 10.585 4.495 2 5 C1.34 3.35 0.68 1.7 0 0 Z " fill="#D1F2F7" transform="translate(29,144)"/>
<path d="M0 0 C1.875 0.3125 1.875 0.3125 4 1 C6 4 6 4 6 7 C1.125 6.125 1.125 6.125 0 5 C-0.04063832 3.33382885 -0.042721 1.66611905 0 0 Z " fill="#E97272" transform="translate(51,89)"/>
<path d="M0 0 C2.97 0.33 5.94 0.66 9 1 C9 1.99 9 2.98 9 4 C5.7 4 2.4 4 -1 4 C-0.67 2.68 -0.34 1.36 0 0 Z " fill="#96635A" transform="translate(104,74)"/>
<path d="M0 0 C1.98 0.66 3.96 1.32 6 2 C6.33 3.65 6.66 5.3 7 7 C5.68 7 4.36 7 3 7 C3 6.01 3 5.02 3 4 C2.01 3.67 1.02 3.34 0 3 C0 2.01 0 1.02 0 0 Z " fill="#1F322E" transform="translate(96,201)"/>
<path d="M0 0 C2.97 0 5.94 0 9 0 C9 0.99 9 1.98 9 3 C5.37 3 1.74 3 -2 3 C-1.34 2.67 -0.68 2.34 0 2 C0 1.34 0 0.68 0 0 Z " fill="#D96252" transform="translate(180,138)"/>
<path d="M0 0 C0.99 0.33 1.98 0.66 3 1 C3 3.97 3 6.94 3 10 C2.01 9.67 1.02 9.34 0 9 C-0.87890625 2.84765625 -0.87890625 2.84765625 -1 1 C-0.67 0.67 -0.34 0.34 0 0 Z " fill="#6BD1F2" transform="translate(47,130)"/>
<path d="M0 0 C0 0.66 0 1.32 0 2 C-0.99 2.495 -0.99 2.495 -2 3 C-2 3.99 -2 4.98 -2 6 C-4.31 5.01 -6.62 4.02 -9 3 C-7.01532024 -0.96935951 -3.9567243 -1.41311582 0 0 Z " fill="#51341B" transform="translate(130,131)"/>
<path d="M0 0 C0.66 0 1.32 0 2 0 C3.35439668 2.70879335 3.06501451 5.00933268 3 8 C1.68 8 0.36 8 -1 8 C-1.04241723 5.66705225 -1.04092937 3.33297433 -1 1 C-0.67 0.67 -0.34 0.34 0 0 Z " fill="#DBB960" transform="translate(72,131)"/>
<path d="M0 0 C0.66 0 1.32 0 2 0 C2 0.66 2 1.32 2 2 C2.99 2 3.98 2 5 2 C5 2.66 5 3.32 5 4 C4.01 4.33 3.02 4.66 2 5 C2.99 5.66 3.98 6.32 5 7 C2.69 7 0.38 7 -2 7 C-1.125 2.25 -1.125 2.25 0 0 Z " fill="#C7E3DD" transform="translate(63,82)"/>
<path d="M0 0 C6.93 0.495 6.93 0.495 14 1 C14 1.33 14 1.66 14 2 C10.37 2 6.74 2 3 2 C3 3.65 3 5.3 3 7 C2.34 7 1.68 7 1 7 C0.67 4.69 0.34 2.38 0 0 Z " fill="#D56255" transform="translate(175,127)"/>
<path d="M0 0 C0 1.65 0 3.3 0 5 C0.66 5.33 1.32 5.66 2 6 C1.34 6.66 0.68 7.32 0 8 C-4.875 5.375 -4.875 5.375 -6 2 C-2.25 0 -2.25 0 0 0 Z " fill="#F0EEEE" transform="translate(122,89)"/>
<path d="M0 0 C-0.25 3.375 -0.25 3.375 -1 7 C-3.0625 8.4375 -3.0625 8.4375 -5 9 C-5.1875 5.625 -5.1875 5.625 -5 2 C-2 0 -2 0 0 0 Z " fill="#D8F1F5" transform="translate(165,80)"/>
<path d="M0 0 C2.97 0.495 2.97 0.495 6 1 C6 2.32 6 3.64 6 5 C4.02 5 2.04 5 0 5 C0 3.35 0 1.7 0 0 Z " fill="#F67265" transform="translate(64,70)"/>
<path d="M0 0 C0 0.66 0 1.32 0 2 C0.99 2 1.98 2 3 2 C3 2.66 3 3.32 3 4 C0.03 4 -2.94 4 -6 4 C-6 3.01 -6 2.02 -6 1 C-3 0 -3 0 0 0 Z " fill="#E0EBEE" transform="translate(159,74)"/>
<path d="M0 0 C1.32 0 2.64 0 4 0 C4.33 1.65 4.66 3.3 5 5 C3.02 5.33 1.04 5.66 -1 6 C-0.67 4.02 -0.34 2.04 0 0 Z " fill="#CBEDF9" transform="translate(153,81)"/>
<path d="M0 0 C2 3 2 3 1.625 6.1875 C1.41875 7.115625 1.2125 8.04375 1 9 C0.01 8.67 -0.98 8.34 -2 8 C-2.20086443 4.28400809 -2.1519437 3.22791555 0 0 Z " fill="#162518" transform="translate(108,195)"/>
<path d="M0 0 C0.53625 0.680625 1.0725 1.36125 1.625 2.0625 C1.295 2.7225 0.965 3.3825 0.625 4.0625 C-0.365 3.4025 -1.355 2.7425 -2.375 2.0625 C-4.3646995 1.67236284 -6.36519869 1.33047351 -8.375 1.0625 C-8.375 0.4025 -8.375 -0.2575 -8.375 -0.9375 C-2.95961538 -2.41442308 -2.95961538 -2.41442308 0 0 Z " fill="#D67F75" transform="translate(93.375,181.9375)"/>
<path d="M0 0 C1.9375 0.8125 1.9375 0.8125 4 2 C4.33 2.99 4.66 3.98 5 5 C3.68 5.33 2.36 5.66 1 6 C0.67 5.01 0.34 4.02 0 3 C-0.66 2.67 -1.32 2.34 -2 2 C-1.34 1.34 -0.68 0.68 0 0 Z " fill="#412F33" transform="translate(109,183)"/>
<path d="M0 0 C2.77425784 1.38712892 3.61161954 3.2926581 5 6 C4.01 6.33 3.02 6.66 2 7 C1.34 6.01 0.68 5.02 0 4 C-2.56282742 3.27034634 -2.56282742 3.27034634 -5 3 C-2.6 0 -2.6 0 0 0 Z " fill="#73CEE4" transform="translate(189,122)"/>
<path d="M0 0 C0.66 0 1.32 0 2 0 C4 3 4 3 4 6 C1.03 5.505 1.03 5.505 -2 5 C-1.125 1.125 -1.125 1.125 0 0 Z " fill="#D8816A" transform="translate(152,93)"/>
<path d="M0 0 C0.33 0.99 0.66 1.98 1 3 C-1.17060446 6.29610307 -3.16389141 8.80121607 -7 10 C-9.25 9.625 -9.25 9.625 -11 9 C-9.88625 8.7525 -8.7725 8.505 -7.625 8.25 C-3.9896976 7.40195672 -3.9896976 7.40195672 -2.6875 5.0625 C-2.460625 4.381875 -2.23375 3.70125 -2 3 C-1.34 2.01 -0.68 1.02 0 0 Z " fill="#CB7169" transform="translate(123,73)"/>
<path d="M0 0 C2.33944736 0.28730055 4.6739143 0.61936779 7 1 C7 1.33 7 1.66 7 2 C5.35 2 3.7 2 2 2 C2 2.66 2 3.32 2 4 C0.35 4.33 -1.3 4.66 -3 5 C-1.125 1.125 -1.125 1.125 0 0 Z " fill="#F9716B" transform="translate(150,71)"/>
<path d="M0 0 C0.66 0 1.32 0 2 0 C3.18771723 3.42943519 2.80226223 5.37784675 1.5625 8.75 C1.13130859 9.94882813 1.13130859 9.94882813 0.69140625 11.171875 C0.34916016 12.07679688 0.34916016 12.07679688 0 13 C-1.36421031 10.27157939 -0.87807211 8.39046682 -0.5625 5.375 C-0.40974609 3.87066406 -0.40974609 3.87066406 -0.25390625 2.3359375 C-0.17011719 1.56507813 -0.08632812 0.79421875 0 0 Z " fill="#533821" transform="translate(130,137)"/>
<path d="M0 0 C0.33 0 0.66 0 1 0 C1.27429625 5.39449293 1.36055646 8.51925805 -2 13 C-3.18414294 9.44757118 -2.69535532 8.30169438 -1.5625 4.8125 C-1.27503906 3.91144531 -0.98757812 3.01039063 -0.69140625 2.08203125 C-0.46324219 1.39496094 -0.23507813 0.70789063 0 0 Z " fill="#81C3D8" transform="translate(195,130)"/>
<path d="M0 0 C0.33 0 0.66 0 1 0 C1.34615998 5.65394631 0.43425238 9.03006806 -2 14 C-2.66 13.34 -3.32 12.68 -4 12 C-3.34 11.01 -2.68 10.02 -2 9 C-1.33386665 6.72461677 -1.33386665 6.72461677 -0.875 4.3125 C-0.70742187 3.50425781 -0.53984375 2.69601563 -0.3671875 1.86328125 C-0.24601563 1.24839844 -0.12484375 0.63351563 0 0 Z " fill="#D27C74" transform="translate(172,79)"/>
<path d="M0 0 C0.33 1.32 0.66 2.64 1 4 C0.34 4 -0.32 4 -1 4 C-0.67 5.98 -0.34 7.96 0 10 C-0.99 10 -1.98 10 -3 10 C-3.36923077 3.47692308 -3.36923077 3.47692308 -1.5 1.0625 C-1.005 0.711875 -0.51 0.36125 0 0 Z " fill="#B3A8B4" transform="translate(152,76)"/>
<path d="M0 0 C2 1.375 2 1.375 4 3 C4 3.66 4 4.32 4 5 C3.01 5 2.02 5 1 5 C0.67 5.99 0.34 6.98 0 8 C-0.33 8 -0.66 8 -1 8 C-1.33 5.69 -1.66 3.38 -2 1 C-1.34 0.67 -0.68 0.34 0 0 Z " fill="#D08179" transform="translate(114,187)"/>
<path d="M0 0 C0.66 0.66 1.32 1.32 2 2 C1.75 5.0625 1.75 5.0625 1 8 C0.01 8.495 0.01 8.495 -1 9 C-1.66 6.69 -2.32 4.38 -3 2 C-2.01 2 -1.02 2 0 2 C0 1.34 0 0.68 0 0 Z " fill="#E6E3D8" transform="translate(123,177)"/>
<path d="M0 0 C0.33 0.66 0.66 1.32 1 2 C1.66 2.33 2.32 2.66 3 3 C2.34 3 1.68 3 1 3 C1 3.66 1 4.32 1 5 C-1.31 5 -3.62 5 -6 5 C-5.34 4.01 -4.68 3.02 -4 2 C-2.68 2 -1.36 2 0 2 C0 1.34 0 0.68 0 0 Z " fill="#FBE7E5" transform="translate(90,176)"/>
<path d="M0 0 C1.98 0 3.96 0 6 0 C6 0.99 6 1.98 6 3 C6.66 3.33 7.32 3.66 8 4 C6.35 4.66 4.7 5.32 3 6 C2.87625 5.195625 2.7525 4.39125 2.625 3.5625 C2.315625 2.2940625 2.315625 2.2940625 2 1 C1.34 0.67 0.68 0.34 0 0 Z " fill="#E1CBA5" transform="translate(108,176)"/>
<path d="M0 0 C0.33 0 0.66 0 1 0 C1.04898438 0.74765625 1.09796875 1.4953125 1.1484375 2.265625 C1.22320312 3.25046875 1.29796875 4.2353125 1.375 5.25 C1.44460937 6.22453125 1.51421875 7.1990625 1.5859375 8.203125 C1.98465249 10.89633189 2.63507063 12.66963279 4 15 C2.68 14.67 1.36 14.34 0 14 C0 9.38 0 4.76 0 0 Z " fill="#A4BBCA" transform="translate(172,126)"/>
<path d="M0 0 C2.29013653 3.4352048 2.17842973 4.985331 2 9 C1.01 9.33 0.02 9.66 -1 10 C-1.33 10.99 -1.66 11.98 -2 13 C-1.39174965 8.65535464 -0.73832608 4.32448133 0 0 Z " fill="#E8D6C7" transform="translate(133,135)"/>
<path d="M0 0 C0.33 0 0.66 0 1 0 C1 2.97 1 5.94 1 9 C0.01 8.67 -0.98 8.34 -2 8 C-2 6.02 -2 4.04 -2 2 C-1.34 2 -0.68 2 0 2 C0 1.34 0 0.68 0 0 Z " fill="#6BCFF4" transform="translate(170,128)"/>
<path d="M0 0 C1.09570312 0.10183594 2.19140625 0.20367187 3.3203125 0.30859375 C4.16335937 0.39238281 5.00640625 0.47617188 5.875 0.5625 C5.875 0.8925 5.875 1.2225 5.875 1.5625 C4.29193353 1.73168268 2.70853281 1.89773936 1.125 2.0625 C0.24328125 2.1553125 -0.6384375 2.248125 -1.546875 2.34375 C-4.125 2.5625 -4.125 2.5625 -8.125 2.5625 C-8.125 1.9025 -8.125 1.2425 -8.125 0.5625 C-5.28943413 -0.85528293 -3.1341294 -0.30007622 0 0 Z " fill="#FCE8E1" transform="translate(155.125,66.4375)"/>
<path d="M0 0 C0.33 0 0.66 0 1 0 C1 3.3 1 6.6 1 10 C-0.32 9.01 -1.64 8.02 -3 7 C-3 5.68 -3 4.36 -3 3 C-2.01 3 -1.02 3 0 3 C0 2.01 0 1.02 0 0 Z " fill="#472B2B" transform="translate(105,198)"/>
<path d="M0 0 C0.33 0.66 0.66 1.32 1 2 C0.67 2.99 0.34 3.98 0 5 C-4.455 5.495 -4.455 5.495 -9 6 C-6 4 -3 2 0 0 Z " fill="#582926" transform="translate(124,196)"/>
<path d="M0 0 C1.98 0 3.96 0 6 0 C6 1.32 6 2.64 6 4 C4.35 3.67 2.7 3.34 1 3 C0.67 2.01 0.34 1.02 0 0 Z " fill="#F17160" transform="translate(85,183)"/>
<path d="M0 0 C6.875 1.875 6.875 1.875 8 3 C8.04063832 4.66617115 8.042721 6.33388095 8 8 C6.2925002 6.71937515 4.62626404 5.38232443 3 4 C3 3.34 3 2.68 3 2 C2.01 1.67 1.02 1.34 0 1 C0 0.67 0 0.34 0 0 Z " fill="#D7F5FA" transform="translate(45,118)"/>
<path d="M0 0 C-3.35327639 2.23551759 -3.90743657 2.17283528 -7.6875 1.625 C-8.49574219 1.51414062 -9.30398437 1.40328125 -10.13671875 1.2890625 C-10.75160156 1.19367188 -11.36648437 1.09828125 -12 1 C-12 0.67 -12 0.34 -12 0 C-10.56666979 -0.39063507 -9.12807321 -0.76198474 -7.6875 -1.125 C-6.88699219 -1.33382812 -6.08648437 -1.54265625 -5.26171875 -1.7578125 C-3 -2 -3 -2 0 0 Z " fill="#FDE9E2" transform="translate(167,99)"/>
<path d="M0 0 C0.33 0 0.66 0 1 0 C0.39169139 6.44807122 0.39169139 6.44807122 -1.375 8.9375 C-3 10 -3 10 -6 10 C-6 9.34 -6 8.68 -6 8 C-5.195625 7.38125 -4.39125 6.7625 -3.5625 6.125 C-0.96935871 3.97459015 -0.34779165 3.24605542 0 0 Z " fill="#F0C1B6" transform="translate(166,81)"/>
<path d="M0 0 C0.33 0 0.66 0 1 0 C1.12375 0.969375 1.2475 1.93875 1.375 2.9375 C1.58125 3.948125 1.7875 4.95875 2 6 C2.66 6.33 3.32 6.66 4 7 C3.34 8.65 2.68 10.3 2 12 C0 10 0 10 -0.1953125 7.6171875 C-0.17210938 6.71226563 -0.14890625 5.80734375 -0.125 4.875 C-0.10695313 3.96492188 -0.08890625 3.05484375 -0.0703125 2.1171875 C-0.04710938 1.41851562 -0.02390625 0.71984375 0 0 Z " fill="#D27F78" transform="translate(95,64)"/>
<path d="M0 0 C0.99 0 1.98 0 3 0 C2.34 3.63 1.68 7.26 1 11 C0.67 11 0.34 11 0 11 C-0.19406478 9.35492782 -0.38007935 7.70890406 -0.5625 6.0625 C-0.66691406 5.14597656 -0.77132812 4.22945312 -0.87890625 3.28515625 C-0.91886719 2.53105469 -0.95882812 1.77695312 -1 1 C-0.67 0.67 -0.34 0.34 0 0 Z " fill="#EF755C" transform="translate(101,57)"/>
<path d="M0 0 C0.99 0 1.98 0 3 0 C3 0.66 3 1.32 3 2 C4.32 2.66 5.64 3.32 7 4 C5.02 4.99 5.02 4.99 3 6 C2.01 4.02 1.02 2.04 0 0 Z " fill="#F9D5D1" transform="translate(96,187)"/>
<path d="M0 0 C1.98 0.66 3.96 1.32 6 2 C5.67 3.32 5.34 4.64 5 6 C4.34 5.67 3.68 5.34 3 5 C3 4.34 3 3.68 3 3 C2.67 3.66 2.34 4.32 2 5 C1.34 5 0.68 5 0 5 C0 3.35 0 1.7 0 0 Z " fill="#323232" transform="translate(138,186)"/>
<path d="M0 0 C0.66 0.99 1.32 1.98 2 3 C0.68 4.32 -0.64 5.64 -2 7 C-2.99 6.67 -3.98 6.34 -5 6 C-4.67 5.34 -4.34 4.68 -4 4 C-3.34 4 -2.68 4 -2 4 C-1.34 2.68 -0.68 1.36 0 0 Z " fill="#9CD5ED" transform="translate(46,138)"/>
<path d="M0 0 C2.31 0.33 4.62 0.66 7 1 C6.01 1.495 6.01 1.495 5 2 C5 3.65 5 5.3 5 7 C4.01 6.67 3.02 6.34 2 6 C0.8125 2.9375 0.8125 2.9375 0 0 Z " fill="#A2ADC4" transform="translate(27,122)"/>
<path d="M0 0 C0 0.99 0 1.98 0 3 C-1.98 3 -3.96 3 -6 3 C-6 2.34 -6 1.68 -6 1 C-6.99 0.67 -7.98 0.34 -9 0 C-5.67465243 -1.10844919 -3.37817425 -0.84454356 0 0 Z " fill="#74D2F9" transform="translate(189,121)"/>
<path d="M0 0 C0.99 0.99 1.98 1.98 3 3 C3 3.66 3 4.32 3 5 C2.34 5 1.68 5 1 5 C0.67 5.66 0.34 6.32 0 7 C-1.32 7.33 -2.64 7.66 -4 8 C-2.68 5.36 -1.36 2.72 0 0 Z " fill="#F9E1DC" transform="translate(77,88)"/>
<path d="M0 0 C1.32 0 2.64 0 4 0 C3.67 2.31 3.34 4.62 3 7 C2.34 7 1.68 7 1 7 C0.67 4.69 0.34 2.38 0 0 Z " fill="#F6BE27" transform="translate(108,65)"/>
<path d="M0 0 C1.485 0.99 1.485 0.99 3 2 C3 2.66 3 3.32 3 4 C2.34 4 1.68 4 1 4 C1 7.3 1 10.6 1 14 C0.67 14 0.34 14 0 14 C0 9.38 0 4.76 0 0 Z " fill="#A0787C" transform="translate(173,123)"/>
<path d="M0 0 C0.66 0.33 1.32 0.66 2 1 C1.34 2.32 0.68 3.64 0 5 C-1.32 5 -2.64 5 -4 5 C-3.6875 3.0625 -3.6875 3.0625 -3 1 C-2.01 0.67 -1.02 0.34 0 0 Z " fill="#EF735E" transform="translate(53,75)"/>
<path d="M0 0 C0.33 0.66 0.66 1.32 1 2 C3.02463255 2.65213292 3.02463255 2.65213292 5 3 C1.25 6 1.25 6 -1 6 C-1.33 6.66 -1.66 7.32 -2 8 C-2.33 7.01 -2.66 6.02 -3 5 C-2.01 5 -1.02 5 0 5 C0 3.35 0 1.7 0 0 Z " fill="#ECDFDD" transform="translate(62,75)"/>
<path d="M0 0 C0.33 0.99 0.66 1.98 1 3 C1.66 3 2.32 3 3 3 C3 5.64 3 8.28 3 11 C0.60236815 8.60236815 0.65719414 7.66726502 0.375 4.375 C0.30023438 3.55773437 0.22546875 2.74046875 0.1484375 1.8984375 C0.09945312 1.27195313 0.05046875 0.64546875 0 0 Z " fill="#F8DBD8" transform="translate(92,61)"/>
<path d="M0 0 C-1.175625 0.680625 -1.175625 0.680625 -2.375 1.375 C-5.03698031 2.88428742 -5.03698031 2.88428742 -7 5 C-7.33 3.68 -7.66 2.36 -8 1 C-4.93251126 -0.86240388 -3.40254489 -1.2151946 0 0 Z " fill="#FCE9E6" transform="translate(104,54)"/>
<path d="M0 0 C-0.66 0 -1.32 0 -2 0 C-2.33 0.99 -2.66 1.98 -3 3 C-4.32 3 -5.64 3 -7 3 C-7 2.01 -7 1.02 -7 0 C-3.86650268 -1.04449911 -3.01031744 -0.93423645 0 0 Z " fill="#72D1E0" transform="translate(44,142)"/>
<path d="M0 0 C1.32 0.33 2.64 0.66 4 1 C4 2.32 4 3.64 4 5 C2.68 5 1.36 5 0 5 C0 3.35 0 1.7 0 0 Z " fill="#E57253" transform="translate(180,129)"/>
<path d="M0 0 C0.33 0.66 0.66 1.32 1 2 C1.66 2.33 2.32 2.66 3 3 C3.33 3.99 3.66 4.98 4 6 C3.34 7.32 2.68 8.64 2 10 C1.01 7.03 0.02 4.06 -1 1 C-0.67 0.67 -0.34 0.34 0 0 Z " fill="#FEE5E3" transform="translate(123,56)"/>
<path d="M0 0 C0.66 0.66 1.32 1.32 2 2 C1.625 4.125 1.625 4.125 1 6 C1 5.34 1 4.68 1 4 C-0.65 4.66 -2.3 5.32 -4 6 C-2.68 4.02 -1.36 2.04 0 0 Z " fill="#C38475" transform="translate(106,186)"/>
<path d="M0 0 C0.99 0 1.98 0 3 0 C3.33 2.31 3.66 4.62 4 7 C3.01 6.67 2.02 6.34 1 6 C0.67 4.02 0.34 2.04 0 0 Z " fill="#EDC8A1" transform="translate(90,136)"/>
<path d="M0 0 C1.65 0 3.3 0 5 0 C5 0.99 5 1.98 5 3 C3.02 3 1.04 3 -1 3 C-0.67 2.01 -0.34 1.02 0 0 Z " fill="#F66966" transform="translate(184,129)"/>
<path d="M0 0 C0.66 0.66 1.32 1.32 2 2 C0.69593116 4.01920337 -0.63823419 6.01924973 -2 8 C-2.33 8 -2.66 8 -3 8 C-3.1875 5.125 -3.1875 5.125 -3 2 C-2.01 1.34 -1.02 0.68 0 0 Z " fill="#E2FAFE" transform="translate(169,120)"/>
<path d="M0 0 C2.64 0.99 5.28 1.98 8 3 C5.64561267 4.42944945 4.51967567 5.08661261 1.75 4.625 C1.1725 4.41875 0.595 4.2125 0 4 C0 2.68 0 1.36 0 0 Z " fill="#FDE8E3" transform="translate(146,95)"/>
<path d="M0 0 C1.65 0 3.3 0 5 0 C5.33 1.65 5.66 3.3 6 5 C4.35 4.67 2.7 4.34 1 4 C1.33 3.01 1.66 2.02 2 1 C1.34 0.67 0.68 0.34 0 0 Z " fill="#F27272" transform="translate(97,70)"/>
</svg>
