<svg version="1.1" id="Layer_1" xmlns="http://www.w3.org/2000/svg" xmlns:xlink="http://www.w3.org/1999/xlink" x="0px" y="0px"
	 width="100%" viewBox="0 0 1023 1414" enable-background="new 0 0 1023 1414" xml:space="preserve">
<path fill="#FFFFFF" opacity="1.000000" stroke="none" 
	d="
M608.000000,1415.000000 
	C405.333344,1415.000000 203.166672,1415.000000 1.000000,1415.000000 
	C1.000000,943.666687 1.000000,472.333344 1.000000,1.000000 
	C342.000000,1.000000 683.000000,1.000000 1024.000000,1.000000 
	C1024.000000,472.333344 1024.000000,943.666687 1024.000000,1415.000000 
	C885.500000,1415.000000 747.000000,1415.000000 608.000000,1415.000000 
M820.899719,415.395691 
	C834.547119,407.750000 848.197632,400.109772 861.840942,392.456726 
	C870.839172,387.409363 879.840576,382.367432 888.813477,377.275330 
	C892.984070,374.908569 894.299805,371.626038 892.542969,368.340118 
	C890.869324,365.209747 887.305542,364.645203 882.997498,366.871887 
	C881.371094,367.712494 879.785217,368.632111 878.188232,369.528839 
	C820.432495,401.959900 762.668457,434.376282 704.953003,466.878876 
	C702.421570,468.304504 700.497620,468.485840 697.647949,467.447083 
	C684.347534,462.598816 671.273865,461.877594 660.664307,476.066467 
	C659.569092,477.531158 658.368958,478.931366 657.103882,480.252747 
	C651.610413,485.990753 645.471863,490.577545 636.982910,491.333618 
	C635.426086,485.756561 631.008972,484.746796 626.349915,485.012085 
	C621.726807,485.275299 617.129272,486.214874 612.553406,487.039917 
	C590.476807,491.020355 568.384827,494.924255 546.355347,499.152679 
	C537.956787,500.764740 529.710632,503.171051 520.764954,505.370331 
	C520.305237,500.312439 520.108704,495.853729 519.463440,491.460938 
	C517.070984,475.171844 514.677307,458.880341 512.010742,442.634613 
	C508.185455,419.329773 504.098450,396.058502 495.166321,374.011597 
	C487.890869,356.053802 476.350739,342.610199 456.188141,339.096252 
	C446.011261,337.322632 437.632996,333.079834 431.569031,324.427795 
	C428.811188,320.492920 425.255524,317.125519 422.246765,313.353119 
	C421.306396,312.174072 420.201172,310.333832 420.486755,309.101013 
	C422.092682,302.169098 423.227600,294.925598 426.180969,288.557190 
	C430.319489,279.633331 433.165497,270.571625 433.547791,260.832214 
	C433.776184,255.014465 435.967438,250.037506 437.966003,244.737030 
	C439.683319,240.182281 439.097107,234.764664 439.566925,229.732086 
	C439.971100,225.402512 437.523743,221.731674 438.385498,216.778625 
	C439.956116,207.750961 441.992462,198.285431 438.169159,188.875717 
	C435.055359,181.212173 433.434265,172.997452 427.887787,166.368881 
	C424.842834,162.729797 422.894135,158.170883 419.834808,154.547089 
	C417.636230,151.942932 414.714508,149.290588 411.589691,148.271149 
	C405.956696,146.433441 399.714691,146.428635 394.123291,144.505966 
	C387.525024,142.237061 384.361969,142.238831 380.849121,145.583755 
	C375.338776,145.886017 371.420715,146.118195 367.500397,146.302078 
	C366.672699,146.340912 365.835052,146.220932 365.004944,146.142563 
	C363.548828,146.005112 362.014526,145.470001 360.655701,145.763123 
	C356.908386,146.571533 354.235443,149.280334 349.687042,149.596939 
	C341.852478,150.142273 334.053162,161.140671 332.866608,169.332535 
	C332.453857,172.182068 331.660675,175.440903 329.892578,177.549759 
	C322.035248,186.921448 320.881165,198.318039 322.622070,209.129257 
	C323.882416,216.956146 324.435059,224.332016 323.901947,232.161697 
	C323.448395,238.822891 326.061096,245.229202 332.026581,248.796112 
	C334.902039,250.515396 335.648407,252.498428 336.061615,255.119171 
	C336.525818,258.063904 336.503784,261.091064 337.048157,264.016327 
	C338.914246,274.044006 338.278839,284.720032 344.290314,293.074371 
	C339.971069,295.960571 335.810333,298.904022 331.485443,301.582520 
	C327.560577,304.013306 323.710022,307.015350 319.391357,308.286194 
	C290.396637,316.818695 261.328278,325.110901 232.189178,333.137634 
	C222.020279,335.938751 215.335098,341.533722 212.042755,351.760864 
	C207.713593,365.208649 202.893143,378.507843 197.950500,391.746460 
	C189.943100,413.193817 184.048965,435.453766 171.917892,455.303497 
	C165.345810,466.057251 159.943985,477.570496 154.601379,489.015228 
	C151.240753,496.214264 148.586945,503.805878 146.283737,511.423218 
	C141.033966,528.785767 148.212738,542.725708 159.561203,555.035583 
	C176.044205,572.914917 192.738388,590.602295 209.517731,608.204590 
	C220.103378,619.309448 220.057022,619.140503 217.445251,634.473450 
	C213.814957,655.786011 210.559860,677.162231 207.001190,698.487366 
	C206.394684,702.121704 207.079285,704.667847 210.758926,705.836243 
	C217.386398,707.940552 223.921570,710.550720 230.704391,711.893127 
	C238.295883,713.395691 246.119614,713.724670 253.733871,714.552490 
	C252.477859,723.753296 250.286942,732.779480 250.194962,741.826965 
	C249.944611,766.453064 249.582169,791.149963 251.097458,815.705627 
	C253.476334,854.255615 258.142731,892.668335 260.325897,931.224976 
	C261.753815,956.442566 261.163910,981.835632 260.244812,1007.105286 
	C259.531738,1026.710205 256.491669,1046.218628 255.226089,1065.817749 
	C252.683365,1105.194458 257.558350,1143.922119 267.293121,1182.025879 
	C269.403839,1190.287476 273.638214,1197.999023 276.769653,1206.012573 
	C277.551514,1208.013428 278.397217,1210.235962 278.275421,1212.301270 
	C277.697845,1222.095581 276.276337,1231.863525 276.139099,1241.654663 
	C275.963654,1254.172119 281.390564,1261.540283 293.156952,1265.935913 
	C305.602600,1270.585205 318.635437,1271.299072 331.586334,1269.456665 
	C347.112274,1267.247803 351.675171,1261.825684 348.859406,1246.440430 
	C346.247894,1232.171265 341.398865,1218.285400 337.082153,1204.371460 
	C335.903351,1200.571899 335.093903,1197.487427 336.799591,1193.539429 
	C339.491974,1187.307617 341.662933,1180.797974 343.462372,1174.243286 
	C347.918030,1158.012573 349.930267,1141.689819 345.381134,1124.984741 
	C343.028168,1116.344238 341.509735,1107.455566 339.977692,1098.616089 
	C335.048706,1070.177856 337.102295,1041.764038 341.674530,1013.578064 
	C346.597534,983.229797 352.400787,953.017578 358.235168,922.826233 
	C362.187897,902.371765 366.857300,882.055786 371.378021,860.872559 
	C372.023712,862.802673 372.461609,863.880554 372.746552,864.997559 
	C378.330750,886.890198 383.496979,908.898804 389.559631,930.657776 
	C399.008423,964.569641 404.823853,998.993530 402.593384,1034.183228 
	C400.340088,1069.733887 396.697327,1105.203369 393.271423,1140.670410 
	C391.270782,1161.382324 387.917206,1181.989990 389.092468,1202.894531 
	C389.627594,1212.413330 389.150635,1221.748047 387.237579,1231.152832 
	C384.843567,1242.922241 388.404694,1247.968750 400.142609,1251.271362 
	C402.850891,1252.033569 405.655762,1252.447021 408.404694,1253.071411 
	C412.905365,1254.093628 417.555847,1254.721191 421.859436,1256.292236 
	C431.469269,1259.800415 440.821960,1264.016357 450.445618,1267.482422 
	C455.101379,1269.159058 460.254456,1269.422729 464.969299,1270.973755 
	C477.988556,1275.257080 490.625275,1274.091797 502.579742,1267.990601 
	C513.687744,1262.321533 514.442932,1254.695068 505.890137,1245.732666 
	C491.075134,1230.208008 476.400513,1214.549438 462.429718,1199.754761 
	C463.888245,1195.591431 464.961945,1192.501587 466.052643,1189.417847 
	C469.373199,1180.029297 473.234161,1170.793335 475.927246,1161.228394 
	C484.892151,1129.388672 488.615936,1096.635254 491.719452,1063.836670 
	C496.068359,1017.876953 498.345581,971.809631 498.352386,925.622620 
	C498.359528,876.928101 496.122223,828.383362 490.175690,780.032654 
	C488.821503,769.021729 487.630341,757.990723 486.355103,746.890320 
	C497.596405,743.526184 504.722992,735.289246 512.298584,727.568115 
	C514.477112,725.347778 514.653076,723.261475 513.933716,720.475342 
	C505.378326,687.338623 496.883575,654.186279 488.417236,621.026672 
	C482.961823,599.659851 477.579620,578.274414 472.201141,557.041687 
	C479.788391,562.205017 487.223389,567.443909 494.847931,572.390503 
	C499.929138,575.687134 505.556610,576.642029 511.591522,575.287292 
	C520.000427,573.399536 528.458923,571.733398 536.890137,569.944153 
	C552.473389,566.637085 568.070068,563.390259 583.622009,559.941467 
	C588.306519,558.902588 592.859680,557.273071 597.475891,555.924072 
	C608.938293,552.574402 620.570557,549.706360 631.811707,545.731567 
	C640.594299,542.626038 647.413452,536.817017 649.145996,526.799988 
	C649.255005,526.169495 649.415100,525.259155 649.850525,525.017212 
	C656.156311,521.512756 661.238403,514.992004 669.991882,517.705505 
	C677.913879,520.161316 686.078674,520.771362 692.321106,513.999268 
	C699.174255,506.564575 705.521545,498.649506 711.843018,490.746765 
	C714.027710,488.015717 714.352173,484.731110 712.336609,481.410828 
	C710.679382,478.680725 711.385071,476.779327 714.432068,475.082275 
	C749.762512,455.405121 785.014221,435.586700 820.899719,415.395691 
z"/>
<path fill="#304F82" opacity="1.000000" stroke="none" 
	d="
M820.593262,415.600708 
	C785.014221,435.586700 749.762512,455.405121 714.432068,475.082275 
	C711.385071,476.779327 710.679382,478.680725 712.336609,481.410828 
	C714.352173,484.731110 714.027710,488.015717 711.843018,490.746765 
	C705.521545,498.649506 699.174255,506.564575 692.321106,513.999268 
	C686.078674,520.771362 677.913879,520.161316 669.991882,517.705505 
	C661.238403,514.992004 656.156311,521.512756 649.850525,525.017212 
	C649.415100,525.259155 649.255005,526.169495 649.145996,526.799988 
	C647.413452,536.817017 640.594299,542.626038 631.811707,545.731567 
	C620.570557,549.706360 608.938293,552.574402 597.475891,555.924072 
	C592.859680,557.273071 588.306519,558.902588 583.622009,559.941467 
	C568.070068,563.390259 552.473389,566.637085 536.890137,569.944153 
	C528.458923,571.733398 520.000427,573.399536 511.591522,575.287292 
	C505.556610,576.642029 499.929138,575.687134 494.847931,572.390503 
	C487.223389,567.443909 479.788391,562.205017 472.201141,557.041687 
	C477.579620,578.274414 482.961823,599.659851 488.417236,621.026672 
	C496.883575,654.186279 505.378326,687.338623 513.933716,720.475342 
	C514.653076,723.261475 514.477112,725.347778 512.298584,727.568115 
	C504.722992,735.289246 497.596405,743.526184 486.355103,746.890320 
	C487.630341,757.990723 488.821503,769.021729 490.175690,780.032654 
	C496.122223,828.383362 498.359528,876.928101 498.352386,925.622620 
	C498.345581,971.809631 496.068359,1017.876953 491.719452,1063.836670 
	C488.615936,1096.635254 484.892151,1129.388672 475.927246,1161.228394 
	C473.234161,1170.793335 469.373199,1180.029297 466.052643,1189.417847 
	C464.961945,1192.501587 463.888245,1195.591431 462.429718,1199.754761 
	C476.400513,1214.549438 491.075134,1230.208008 505.890137,1245.732666 
	C514.442932,1254.695068 513.687744,1262.321533 502.579742,1267.990601 
	C490.625275,1274.091797 477.988556,1275.257080 464.969299,1270.973755 
	C460.254456,1269.422729 455.101379,1269.159058 450.445618,1267.482422 
	C440.821960,1264.016357 431.469269,1259.800415 421.859436,1256.292236 
	C417.555847,1254.721191 412.905365,1254.093628 408.404694,1253.071411 
	C405.655762,1252.447021 402.850891,1252.033569 400.142609,1251.271362 
	C388.404694,1247.968750 384.843567,1242.922241 387.237579,1231.152832 
	C389.150635,1221.748047 389.627594,1212.413330 389.092468,1202.894531 
	C387.917206,1181.989990 391.270782,1161.382324 393.271423,1140.670410 
	C396.697327,1105.203369 400.340088,1069.733887 402.593384,1034.183228 
	C404.823853,998.993530 399.008423,964.569641 389.559631,930.657776 
	C383.496979,908.898804 378.330750,886.890198 372.746552,864.997559 
	C372.461609,863.880554 372.023712,862.802673 371.378021,860.872559 
	C366.857300,882.055786 362.187897,902.371765 358.235168,922.826233 
	C352.400787,953.017578 346.597534,983.229797 341.674530,1013.578064 
	C337.102295,1041.764038 335.048706,1070.177856 339.977692,1098.616089 
	C341.509735,1107.455566 343.028168,1116.344238 345.381134,1124.984741 
	C349.930267,1141.689819 347.918030,1158.012573 343.462372,1174.243286 
	C341.662933,1180.797974 339.491974,1187.307617 336.799591,1193.539429 
	C335.093903,1197.487427 335.903351,1200.571899 337.082153,1204.371460 
	C341.398865,1218.285400 346.247894,1232.171265 348.859406,1246.440430 
	C351.675171,1261.825684 347.112274,1267.247803 331.586334,1269.456665 
	C318.635437,1271.299072 305.602600,1270.585205 293.156952,1265.935913 
	C281.390564,1261.540283 275.963654,1254.172119 276.139099,1241.654663 
	C276.276337,1231.863525 277.697845,1222.095581 278.275421,1212.301270 
	C278.397217,1210.235962 277.551514,1208.013428 276.769653,1206.012573 
	C273.638214,1197.999023 269.403839,1190.287476 267.293121,1182.025879 
	C257.558350,1143.922119 252.683365,1105.194458 255.226089,1065.817749 
	C256.491669,1046.218628 259.531738,1026.710205 260.244812,1007.105286 
	C261.163910,981.835632 261.753815,956.442566 260.325897,931.224976 
	C258.142731,892.668335 253.476334,854.255615 251.097458,815.705627 
	C249.582169,791.149963 249.944611,766.453064 250.194962,741.826965 
	C250.286942,732.779480 252.477859,723.753296 253.733871,714.552490 
	C246.119614,713.724670 238.295883,713.395691 230.704391,711.893127 
	C223.921570,710.550720 217.386398,707.940552 210.758926,705.836243 
	C207.079285,704.667847 206.394684,702.121704 207.001190,698.487366 
	C210.559860,677.162231 213.814957,655.786011 217.445251,634.473450 
	C220.057022,619.140503 220.103378,619.309448 209.517731,608.204590 
	C192.738388,590.602295 176.044205,572.914917 159.561203,555.035583 
	C148.212738,542.725708 141.033966,528.785767 146.283737,511.423218 
	C148.586945,503.805878 151.240753,496.214264 154.601379,489.015228 
	C159.943985,477.570496 165.345810,466.057251 171.917892,455.303497 
	C184.048965,435.453766 189.943100,413.193817 197.950500,391.746460 
	C202.893143,378.507843 207.713593,365.208649 212.042755,351.760864 
	C215.335098,341.533722 222.020279,335.938751 232.189178,333.137634 
	C261.328278,325.110901 290.396637,316.818695 319.391357,308.286194 
	C323.710022,307.015350 327.560577,304.013306 331.485443,301.582520 
	C335.810333,298.904022 339.971069,295.960571 344.290314,293.074371 
	C338.278839,284.720032 338.914246,274.044006 337.048157,264.016327 
	C336.503784,261.091064 336.525818,258.063904 336.061615,255.119171 
	C335.648407,252.498428 334.902039,250.515396 332.026581,248.796112 
	C326.061096,245.229202 323.448395,238.822891 323.901947,232.161697 
	C324.435059,224.332016 323.882416,216.956146 322.622070,209.129257 
	C320.881165,198.318039 322.035248,186.921448 329.892578,177.549759 
	C331.660675,175.440903 332.453857,172.182068 332.866608,169.332535 
	C334.053162,161.140671 341.852478,150.142273 349.687042,149.596939 
	C354.235443,149.280334 356.908386,146.571533 360.655701,145.763123 
	C362.014526,145.470001 363.548828,146.005112 365.004944,146.142563 
	C365.835052,146.220932 366.672699,146.340912 367.500397,146.302078 
	C371.420715,146.118195 375.338776,145.886017 380.849121,145.583755 
	C384.361969,142.238831 387.525024,142.237061 394.123291,144.505966 
	C399.714691,146.428635 405.956696,146.433441 411.589691,148.271149 
	C414.714508,149.290588 417.636230,151.942932 419.834808,154.547089 
	C422.894135,158.170883 424.842834,162.729797 427.887787,166.368881 
	C433.434265,172.997452 435.055359,181.212173 438.169159,188.875717 
	C441.992462,198.285431 439.956116,207.750961 438.385498,216.778625 
	C437.523743,221.731674 439.971100,225.402512 439.566925,229.732086 
	C439.097107,234.764664 439.683319,240.182281 437.966003,244.737030 
	C435.967438,250.037506 433.776184,255.014465 433.547791,260.832214 
	C433.165497,270.571625 430.319489,279.633331 426.180969,288.557190 
	C423.227600,294.925598 422.092682,302.169098 420.486755,309.101013 
	C420.201172,310.333832 421.306396,312.174072 422.246765,313.353119 
	C425.255524,317.125519 428.811188,320.492920 431.569031,324.427795 
	C437.632996,333.079834 446.011261,337.322632 456.188141,339.096252 
	C476.350739,342.610199 487.890869,356.053802 495.166321,374.011597 
	C504.098450,396.058502 508.185455,419.329773 512.010742,442.634613 
	C514.677307,458.880341 517.070984,475.171844 519.463440,491.460938 
	C520.108704,495.853729 520.305237,500.312439 520.764954,505.370331 
	C529.710632,503.171051 537.956787,500.764740 546.355347,499.152679 
	C568.384827,494.924255 590.476807,491.020355 612.553406,487.039917 
	C617.129272,486.214874 621.726807,485.275299 626.349915,485.012085 
	C631.008972,484.746796 635.426086,485.756561 636.982910,491.333618 
	C645.471863,490.577545 651.610413,485.990753 657.103882,480.252747 
	C658.368958,478.931366 659.569092,477.531158 660.664307,476.066467 
	C671.273865,461.877594 684.347534,462.598816 697.647949,467.447083 
	C700.497620,468.485840 702.421570,468.304504 704.953003,466.878876 
	C762.668457,434.376282 820.432495,401.959900 878.188232,369.528839 
	C879.785217,368.632111 881.371094,367.712494 882.997498,366.871887 
	C887.305542,364.645203 890.869324,365.209747 892.542969,368.340118 
	C894.299805,371.626038 892.984070,374.908569 888.813477,377.275330 
	C879.840576,382.367432 870.839172,387.409363 861.840942,392.456726 
	C848.197632,400.109772 834.547119,407.750000 820.593262,415.600708 
M232.879532,479.493866 
	C232.200562,481.531494 231.742157,483.677216 230.805527,485.588593 
	C226.026154,495.341919 224.714554,508.128235 210.115631,509.292114 
	C211.290405,512.147888 212.275070,514.789612 213.455734,517.340637 
	C214.595078,519.802429 215.702301,522.334167 217.243958,524.541748 
	C219.594406,527.907288 222.267899,531.052246 224.886917,534.222534 
	C225.780975,535.304810 226.794373,536.783997 227.977982,537.039124 
	C231.585632,537.816711 240.126358,530.531250 239.965897,526.823547 
	C239.225998,509.728149 238.347305,492.638672 237.485764,475.548737 
	C237.448776,474.815033 237.089172,474.097595 236.650131,472.576782 
	C235.228912,475.098541 234.189224,476.943359 232.879532,479.493866 
z"/>
<path fill="#F7FAFB" opacity="1.000000" stroke="none" 
	d="
M233.014526,479.140991 
	C234.189224,476.943359 235.228912,475.098541 236.650131,472.576782 
	C237.089172,474.097595 237.448776,474.815033 237.485764,475.548737 
	C238.347305,492.638672 239.225998,509.728149 239.965897,526.823547 
	C240.126358,530.531250 231.585632,537.816711 227.977982,537.039124 
	C226.794373,536.783997 225.780975,535.304810 224.886917,534.222534 
	C222.267899,531.052246 219.594406,527.907288 217.243958,524.541748 
	C215.702301,522.334167 214.595078,519.802429 213.455734,517.340637 
	C212.275070,514.789612 211.290405,512.147888 210.115631,509.292114 
	C224.714554,508.128235 226.026154,495.341919 230.805527,485.588593 
	C231.742157,483.677216 232.200562,481.531494 233.014526,479.140991 
z"/>
</svg>